<svg id="Capa_1" data-name="Capa 1" xmlns="http://www.w3.org/2000/svg" viewBox="0 0 38.55 53.91"><defs><style>.cls-1{fill:none;stroke:#00adf0;stroke-linecap:round;stroke-linejoin:round;stroke-width:1.76px;}</style></defs><title>ICONOS</title><path class="cls-1" d="M37.67,6.06V32.91c0,4.21-3.82,7.64-8.52,7.64H18.84A3,3,0,0,1,17,39.92a3,3,0,0,1-1-3.41l.12-.23,3.72-5.11A7.61,7.61,0,0,0,21.31,28a2.94,2.94,0,0,0-.42-2.41c-.35-.5-.59-.65-.66-.67a3.55,3.55,0,0,0-.56.54l-.1.11c-.53.57-1.9,2-2.95,3-.6.61-1.2,1.22-1.75,1.8-3,3.13-3.76,3.87-4.92,3.4A1.51,1.51,0,0,1,9,32.32V4.43A3.55,3.55,0,0,1,12.57.88H34.12a3.55,3.55,0,0,1,3.55,3.55Z"/><path class="cls-1" d="M20.75,53v-5.2l.39-.16c.18-.08,4.49-1.34,4.49-7.12"/><path class="cls-1" d="M.88,53V31.78c0-3.55,7.28-8.3,8.14-8.87"/><line class="cls-1" x1="17.13" y1="9.84" x2="30.09" y2="9.84"/><line class="cls-1" x1="17.13" y1="17.93" x2="30.09" y2="17.93"/></svg>