<svg id="Capa_1" data-name="Capa 1" xmlns="http://www.w3.org/2000/svg" viewBox="0 0 139.04 126.36"><defs><style>.cls-1{fill:#00adf0;}.cls-2,.cls-3{fill:none;stroke:#00adf0;stroke-linecap:round;stroke-linejoin:round;stroke-width:4px;}.cls-3{fill-rule:evenodd;}</style></defs><title>&amp;apos;</title><path class="cls-1" d="M39.36,104.09a1.42,1.42,0,0,1-1.08-.44,1.46,1.46,0,0,1-.43-1.06V98.87A18.58,18.58,0,0,1,32.64,98a15.26,15.26,0,0,1-4-2,1.7,1.7,0,0,1-.78-1.11A2,2,0,0,1,28,93.63a1.48,1.48,0,0,1,.84-.75,1.65,1.65,0,0,1,1.37.29,15,15,0,0,0,3.54,1.77,15.35,15.35,0,0,0,5.17.75q3.81,0,5.62-1.46a4.71,4.71,0,0,0,1.81-3.85,3.88,3.88,0,0,0-1.31-3,9.93,9.93,0,0,0-4.4-1.81l-4.42-.93q-7.91-1.68-7.91-8.18A8.51,8.51,0,0,1,29.52,72a8.72,8.72,0,0,1,3.32-3.16,12.07,12.07,0,0,1,5-1.42V63.64a1.43,1.43,0,0,1,.43-1.06,1.4,1.4,0,0,1,1.08-.45,1.52,1.52,0,0,1,1.5,1.51v3.75a15,15,0,0,1,4.11,1,11.57,11.57,0,0,1,3.67,2.23,1.58,1.58,0,0,1,.6,1.44,1.55,1.55,0,0,1-.8,1.21,1.58,1.58,0,0,1-1.7-.26,11.47,11.47,0,0,0-3.29-1.84,12.92,12.92,0,0,0-4.27-.64,8.09,8.09,0,0,0-5.28,1.6,5.14,5.14,0,0,0-2,4.2,4.32,4.32,0,0,0,1.24,3.24,7.93,7.93,0,0,0,4,1.8l4.47,1A13.32,13.32,0,0,1,48,85.17a6.57,6.57,0,0,1,2,5,7.54,7.54,0,0,1-2.57,5.9,11.61,11.61,0,0,1-6.63,2.72v3.76a1.5,1.5,0,0,1-.42,1.06A1.44,1.44,0,0,1,39.36,104.09Z"/><rect class="cls-2" x="2" y="42.44" width="74.46" height="81.91" rx="9.52"/><path class="cls-2" d="M91.74,92.6A45.3,45.3,0,1,0,49.16,31.8"/><polyline class="cls-3" points="91.74 23.86 91.74 50.3 114.44 50.3"/><line class="cls-2" x1="91.74" y1="7.21" x2="91.74" y2="12.6"/></svg>