<svg xmlns="http://www.w3.org/2000/svg" viewBox="0 0 90.26 66.26"><defs><style>.cls-1{fill:#00adf0;}</style></defs><title>&amp;apos;</title><g id="Capa_1" data-name="Capa 1"><path class="cls-1" d="M70.11,60.45h0a1,1,0,0,1,0-1.9h0a14.09,14.09,0,0,0,5.48-1.07A16,16,0,0,0,72.21,27a1,1,0,0,1-.63-.42,1,1,0,0,1-.12-.75A18,18,0,0,0,72,20.9,17.72,17.72,0,0,0,54.52,4h-.09A17.58,17.58,0,0,0,37.52,16.82a.94.94,0,0,1-.7.67,1,1,0,0,1-.93-.29,10.69,10.69,0,0,0-18,10.68.95.95,0,0,1-.71,1.25A15.3,15.3,0,0,0,5,44.08v.36A14.56,14.56,0,0,0,19.52,58.49a1,1,0,1,1,0,1.91h0A16.48,16.48,0,0,1,3.07,44.48c0-.13,0-.27,0-.4A17.22,17.22,0,0,1,15.74,27.51a12.37,12.37,0,0,1-.4-3.59,12.59,12.59,0,0,1,20.83-9.11A19.5,19.5,0,0,1,54.43,2.06h.1A19.4,19.4,0,0,1,73.88,20.84a19.66,19.66,0,0,1-.36,4.47,17.9,17.9,0,0,1,2.81,33.92A16,16,0,0,1,70.11,60.45Z"/><path class="cls-1" d="M54.63,63.74H36.27a5,5,0,0,1-5-5V34.69a5,5,0,0,1,5-5H54.63a5,5,0,0,1,5,5V58.77A5,5,0,0,1,54.63,63.74ZM36.27,31.62a3.08,3.08,0,0,0-3.07,3.07V58.77a3.08,3.08,0,0,0,3.07,3.07H54.63a3.07,3.07,0,0,0,3.06-3.07V34.69a3.07,3.07,0,0,0-3.06-3.07Z"/><path class="cls-1" d="M50.81,41.48H41.24a1,1,0,1,1,0-1.91h9.57a1,1,0,0,1,0,1.91Z"/><path class="cls-1" d="M50.81,51.32H41.24a1,1,0,1,1,0-1.91h9.57a1,1,0,0,1,0,1.91Z"/></g></svg>