<svg id="Capa_1" data-name="Capa 1" xmlns="http://www.w3.org/2000/svg" viewBox="0 0 117.22 85.82"><defs><style>.cls-1{fill:none;stroke:#00adf0;stroke-linecap:round;stroke-linejoin:round;stroke-width:2.65px;}</style></defs><title>&amp;apos;</title><path class="cls-1" d="M93.27,79.92a21,21,0,0,0,8.17-1.59,23.58,23.58,0,0,0-5-45A25.75,25.75,0,0,0,46.67,20.18,16.2,16.2,0,0,0,18.4,30.46a16.48,16.48,0,0,0,.91,5.9,22.58,22.58,0,0,0-18,22.1V59A21.52,21.52,0,0,0,22.89,79.85"/><rect class="cls-1" x="40.62" y="39.81" width="36.73" height="44.69" rx="5.59"/><line class="cls-1" x1="53.12" y1="53.52" x2="66.44" y2="53.52"/><line class="cls-1" x1="53.12" y1="67.21" x2="66.44" y2="67.21"/></svg>