<svg xmlns="http://www.w3.org/2000/svg" viewBox="0 0 66.26 66.26"><defs><style>.cls-1{fill:none;stroke:#00adf0;stroke-linecap:round;stroke-linejoin:round;stroke-width:2px;}</style></defs><title>&amp;apos;</title><g id="Capa_1" data-name="Capa 1"><path class="cls-1" d="M25,7.59A4.58,4.58,0,0,1,29.6,3H54.76a4.58,4.58,0,0,1,4.57,4.57V58.67a4.59,4.59,0,0,1-4.57,4.57H29.6A4.58,4.58,0,0,1,25,58.67"/><rect class="cls-1" x="6.93" y="15" width="27.44" height="33.54" rx="4.38"/><line class="cls-1" x1="13.79" y1="26.44" x2="26.75" y2="26.44"/><line class="cls-1" x1="13.79" y1="35.59" x2="26.75" y2="35.59"/><path class="cls-1" d="M36.21,10.86H50.08A3.16,3.16,0,0,1,53.23,14V49.2a3.16,3.16,0,0,1-3.15,3.15H36.21"/></g></svg>