<svg id="Capa_1" data-name="Capa 1" xmlns="http://www.w3.org/2000/svg" viewBox="0 0 52.14 52.13"><defs><style>.cls-1{fill:none;stroke:#00adf0;stroke-linecap:round;stroke-linejoin:round;stroke-width:2.39px;}</style></defs><title>&amp;apos;</title><path class="cls-1" d="M30.2,50.94H21.94A2.14,2.14,0,0,1,19.8,48.8V46.86a22.29,22.29,0,0,1-4-1.66l-1.37,1.37a2.12,2.12,0,0,1-3,0L5.56,40.72a2.12,2.12,0,0,1,0-3l1.37-1.37a21.59,21.59,0,0,1-1.66-4H3.33a2.13,2.13,0,0,1-1.51-.62,2.15,2.15,0,0,1-.63-1.51V21.92a2.13,2.13,0,0,1,2.14-2.13H5.27a21.59,21.59,0,0,1,1.66-4L5.57,14.42a2.15,2.15,0,0,1-.63-1.51,2.09,2.09,0,0,1,.63-1.51l5.84-5.85a2.14,2.14,0,0,1,3,0l1.36,1.36a21.55,21.55,0,0,1,4-1.65V3.33a2.14,2.14,0,0,1,2.14-2.14H30.2a2.14,2.14,0,0,1,2.14,2.14V5.25a22.2,22.2,0,0,1,4,1.66L37.7,5.55a2.14,2.14,0,0,1,1.51-.62h0a2.11,2.11,0,0,1,1.51.62l5.85,5.85a2.12,2.12,0,0,1,.63,1.51,2.15,2.15,0,0,1-.63,1.51l-1.36,1.36a21.59,21.59,0,0,1,1.66,4h1.94a2.13,2.13,0,0,1,2.13,2.13v8.27a2.13,2.13,0,0,1-2.13,2.13H46.87a21.59,21.59,0,0,1-1.66,4l1.37,1.37a2.14,2.14,0,0,1,0,3l-5.84,5.85a2.12,2.12,0,0,1-3,0L36.34,45.2a22.2,22.2,0,0,1-4,1.66V48.8A2.14,2.14,0,0,1,30.2,50.94Z"/><path class="cls-1" d="M26.84,31.43A5.37,5.37,0,1,1,32,26.07,5.25,5.25,0,0,1,26.84,31.43Zm0-10a4.64,4.64,0,1,0,4.39,4.63A4.52,4.52,0,0,0,26.84,21.44Z"/></svg>