<svg xmlns="http://www.w3.org/2000/svg" viewBox="0 0 86.15 86.14"><defs><style>.cls-1{fill:none;stroke:#00adf0;stroke-linecap:round;stroke-linejoin:round;stroke-width:2px;}</style></defs><title>&amp;apos;</title><g id="Capa_3" data-name="Capa 3"><path class="cls-1" d="M33.54,82.83a2.3,2.3,0,0,0,2.31,2.31H50.3a2.3,2.3,0,0,0,2.31-2.31V78.35a36,36,0,0,0,8.68-3.6l3.16,3.17a2.34,2.34,0,0,0,1.64.68,2.32,2.32,0,0,0,1.63-.68L77.94,67.69a2.31,2.31,0,0,0,0-3.26l-3.16-3.17a35.92,35.92,0,0,0,3.59-8.67h4.47a2.31,2.31,0,0,0,2.31-2.31V35.82a2.31,2.31,0,0,0-2.31-2.31H78.37a35.92,35.92,0,0,0-3.59-8.67l3.14-3.15a2.28,2.28,0,0,0,.68-1.63,2.34,2.34,0,0,0-.68-1.64L67.7,8.21a2.3,2.3,0,0,0-3.27,0l-3.14,3.14a36,36,0,0,0-8.68-3.6V3.31A2.3,2.3,0,0,0,50.3,1H35.85a2.3,2.3,0,0,0-2.31,2.31V7.75a36,36,0,0,0-8.68,3.6L21.72,8.21a2.3,2.3,0,0,0-3.27,0L8.23,18.42a2.3,2.3,0,0,0-.68,1.64,2.28,2.28,0,0,0,.68,1.63l3.14,3.15a35.92,35.92,0,0,0-3.59,8.67H3.32A2.31,2.31,0,0,0,1,35.82V50.28a2.32,2.32,0,0,0,2.31,2.31H7.78a35.92,35.92,0,0,0,3.59,8.67L8.21,64.43a2.31,2.31,0,0,0,0,3.26L18.43,77.92a2.32,2.32,0,0,0,1.63.68h0a2.34,2.34,0,0,0,1.64-.68l3.16-3.17a36,36,0,0,0,8.68,3.6Z"/><circle class="cls-1" cx="43.09" cy="42.67" r="19.65"/><circle class="cls-1" cx="43.09" cy="40.59" r="5.66"/><path class="cls-1" d="M35.58,60.93v-6.4a7.13,7.13,0,0,1,7.13-7.12h1a7.13,7.13,0,0,1,7.13,7.12V60.7"/></g></svg>