<svg xmlns="http://www.w3.org/2000/svg" viewBox="0 0 120.04 93.44"><defs><style>.cls-1{fill:none;stroke:#00adf0;stroke-linecap:round;stroke-linejoin:round;stroke-width:2.33px;}.cls-2{fill:#00adf0;}</style></defs><title>&amp;apos;</title><g id="Capa_1" data-name="Capa 1"><path class="cls-1" d="M20.24,9.22h41a19.58,19.58,0,0,1,16.38,8.86L91.15,38.76"/><path class="cls-1" d="M66.19,61.43H38.55a7.16,7.16,0,0,1-6.7-4.65,3.68,3.68,0,0,0-3.42-2.5H20.24"/><path class="cls-1" d="M67.37,56.86A26.52,26.52,0,1,0,75,45.73"/><rect class="cls-1" x="1.17" y="1.17" width="19.07" height="60.26" rx="3.55"/><path class="cls-1" d="M59.24,24l19,26.61a3.9,3.9,0,0,1-1.4,5.74h0A11.63,11.63,0,0,1,62.29,53l-3.35-4.44a16.23,16.23,0,0,0-8.41-5.8l-2.93-.85a19.42,19.42,0,0,1-11-8.32l-1.73-2.76"/><path class="cls-2" d="M93.14,79.31a.8.8,0,0,1-.57-.22.75.75,0,0,1-.23-.55V75.85a11.81,11.81,0,0,1-3.61-.64A8.61,8.61,0,0,1,86,73.72a.91.91,0,0,1-.41-.8.89.89,0,0,1,.4-.73c.24-.17.54-.12.9.14a10.88,10.88,0,0,0,2.47,1.31,9.85,9.85,0,0,0,3.57.55,6.25,6.25,0,0,0,4-1.08,3.48,3.48,0,0,0,1.32-2.83,2.84,2.84,0,0,0-1-2.25,7.69,7.69,0,0,0-3.19-1.33l-2.9-.59a7.65,7.65,0,0,1-4-1.88,4.85,4.85,0,0,1-1.29-3.54,5.59,5.59,0,0,1,.8-3A5.87,5.87,0,0,1,89,55.64a7.94,7.94,0,0,1,3.36-.9V52.05a.75.75,0,0,1,.23-.55.84.84,0,0,1,1.13,0,.72.72,0,0,1,.24.55v2.72a9.29,9.29,0,0,1,2.87.69,7.72,7.72,0,0,1,2.51,1.65.8.8,0,0,1,.27.77.83.83,0,0,1-.46.6.78.78,0,0,1-.87-.19,7.86,7.86,0,0,0-2.33-1.4,8.11,8.11,0,0,0-3-.49,5.8,5.8,0,0,0-3.81,1.18,3.86,3.86,0,0,0-1.43,3.11,3.25,3.25,0,0,0,.9,2.41,5.64,5.64,0,0,0,2.92,1.32l2.9.62a9.13,9.13,0,0,1,4.28,1.84,4.26,4.26,0,0,1,1.37,3.31,4.91,4.91,0,0,1-1.71,3.91,7.64,7.64,0,0,1-4.44,1.72v2.72a.77.77,0,0,1-.8.77Z"/></g></svg>