<svg xmlns="http://www.w3.org/2000/svg" viewBox="0 0 68.48 46.69"><defs><style>.cls-1{fill:none;stroke:#00adf0;stroke-miterlimit:10;stroke-width:1.6px;}</style></defs><title>&amp;apos;</title><g id="Capa_1" data-name="Capa 1"><rect class="cls-1" x="0.8" y="0.8" width="9.54" height="29.27" rx="1.03"/><rect class="cls-1" x="58.14" y="0.8" width="9.54" height="29.27" rx="1.03"/><path class="cls-1" d="M10.34,27.91l19.59,16.8a4.9,4.9,0,0,0,6.38,0l1.16-1"/><path class="cls-1" d="M38.85,27.45,50.31,37.63a3.68,3.68,0,0,0,5.07-.17h0a2.74,2.74,0,0,0,.07-3.77L35,11.34l-7.33,6.12a4.5,4.5,0,0,1-5.89-.12h0a4.49,4.49,0,0,1,0-6.71l6.82-6A15.28,15.28,0,0,1,38.71.8h.12a19.14,19.14,0,0,1,9.29,2.41l.11.06a10.25,10.25,0,0,0,5,1.29h4.92"/><path class="cls-1" d="M28.93,36.27s8.24,7.34,10,8.5,5,.68,5.41-3"/><path class="cls-1" d="M34.85,33.54s8.59,7.65,10.46,8.87,6,1.51,6-4.15"/><line class="cls-1" x1="58.14" y1="27.43" x2="53.53" y2="31.6"/><line class="cls-1" x1="10.34" y1="4.49" x2="28.6" y2="4.49"/></g></svg>