<svg xmlns="http://www.w3.org/2000/svg" viewBox="0 0 66.26 66.26"><defs><style>.cls-1,.cls-2{fill:#00adf0;}.cls-2{stroke:#00adf0;stroke-miterlimit:10;stroke-width:1.26px;}</style></defs><title>&amp;apos;</title><g id="Capa_1" data-name="Capa 1"><path class="cls-1" d="M38.34,64.52H27.91a2.7,2.7,0,0,1-2.69-2.7V59.36a27.24,27.24,0,0,1-5.06-2.09L18.43,59a2.69,2.69,0,0,1-3.81,0L7.24,51.62a2.7,2.7,0,0,1,0-3.81L9,46.08A27.28,27.28,0,0,1,6.88,41H4.44a2.72,2.72,0,0,1-1.91-.78,2.75,2.75,0,0,1-.79-1.91V27.9a2.7,2.7,0,0,1,2.69-2.7H6.88A27.19,27.19,0,0,1,9,20.15L7.26,18.43a2.73,2.73,0,0,1-.79-1.91,2.66,2.66,0,0,1,.79-1.9l7.38-7.38a2.7,2.7,0,0,1,3.81,0L20.16,9a26.58,26.58,0,0,1,5.06-2.09V4.44a2.7,2.7,0,0,1,2.69-2.7H38.34A2.7,2.7,0,0,1,41,4.44V6.87A26.49,26.49,0,0,1,46.09,9l1.72-1.72a2.73,2.73,0,0,1,1.91-.79h0a2.66,2.66,0,0,1,1.9.79L59,14.62a2.69,2.69,0,0,1,0,3.81l-1.72,1.72a27.19,27.19,0,0,1,2.1,5.05h2.44a2.7,2.7,0,0,1,2.7,2.7V38.33A2.69,2.69,0,0,1,61.82,41H59.38a27.28,27.28,0,0,1-2.1,5.06L59,47.81a2.7,2.7,0,0,1,0,3.81L51.64,59a2.71,2.71,0,0,1-1.91.79,2.66,2.66,0,0,1-1.9-.79l-1.74-1.73A27.15,27.15,0,0,1,41,59.36v2.46A2.7,2.7,0,0,1,38.34,64.52ZM20,55a1.06,1.06,0,0,1,.51.14,24.85,24.85,0,0,0,6,2.49,1,1,0,0,1,.76,1v3.23a.64.64,0,0,0,.64.64H38.34a.64.64,0,0,0,.64-.64V58.59a1,1,0,0,1,.76-1,24.76,24.76,0,0,0,6-2.49,1,1,0,0,1,1.24.16l2.28,2.29a.67.67,0,0,0,.91,0l7.37-7.38a.65.65,0,0,0,0-.91L55.28,47a1,1,0,0,1-.17-1.24,25.29,25.29,0,0,0,2.5-6,1,1,0,0,1,1-.76h3.22a.64.64,0,0,0,.64-.64V27.9a.64.64,0,0,0-.64-.64H58.6a1,1,0,0,1-1-.76,25.36,25.36,0,0,0-2.5-6,1,1,0,0,1,.17-1.24L57.55,17a.67.67,0,0,0,0-.91L50.17,8.7a.67.67,0,0,0-.91,0L47,11a1,1,0,0,1-1.24.17,24.76,24.76,0,0,0-6-2.49,1,1,0,0,1-.76-1V4.44a.64.64,0,0,0-.64-.64H27.91a.64.64,0,0,0-.64.64v3.2a1,1,0,0,1-.76,1,24.85,24.85,0,0,0-6,2.49A1,1,0,0,1,19.26,11L17,8.7a.63.63,0,0,0-.9,0L8.71,16.07a.64.64,0,0,0-.19.45.66.66,0,0,0,.19.46L11,19.24a1,1,0,0,1,.16,1.24,25.33,25.33,0,0,0-2.49,6,1,1,0,0,1-1,.76H4.44a.64.64,0,0,0-.64.64V38.33a.63.63,0,0,0,.18.45.66.66,0,0,0,.46.19H7.66a1,1,0,0,1,1,.76,25.26,25.26,0,0,0,2.49,6A1,1,0,0,1,11,47L8.7,49.26a.65.65,0,0,0,0,.91l7.37,7.38a.68.68,0,0,0,.91,0l2.28-2.29A1.06,1.06,0,0,1,20,55Z"/><path class="cls-2" d="M34.1,39.9a6.78,6.78,0,1,1,6.48-6.77A6.63,6.63,0,0,1,34.1,39.9Zm0-12.61a5.85,5.85,0,1,0,5.55,5.84A5.7,5.7,0,0,0,34.1,27.29Z"/></g></svg>