<svg id="Capa_1" data-name="Capa 1" xmlns="http://www.w3.org/2000/svg" viewBox="0 0 106.25 50.64"><defs><style>.cls-1{fill:none;stroke:#00adf0;stroke-linecap:round;stroke-linejoin:round;stroke-width:2.5px;}</style></defs><title>&amp;apos;</title><path class="cls-1" d="M57.22,1.56a.35.35,0,0,0-.36.34V15.37a.33.33,0,0,0,.3.33c12.38,1.66,12.37,19.59,0,21.24a.34.34,0,0,0-.3.34V49.05a.35.35,0,0,0,.35.34h47.14a.35.35,0,0,0,.34-.35C103.45-9.75,115.81,2.86,57.22,1.56Z"/><path class="cls-1" d="M1.25,8.27a7,7,0,0,1,7-7H48.74a.34.34,0,0,1,.34.34V18.11a2.64,2.64,0,0,0,3.12,2.6l.16,0h0a5.43,5.43,0,0,1,3,10.4,5.6,5.6,0,0,1-3.09.25h0a2.64,2.64,0,0,0-3.12,2.6V48.74a.34.34,0,0,1-.34.34H38a.34.34,0,0,1-.32-.23,10.71,10.71,0,0,0-20.42,0,.32.32,0,0,1-.32.23H1.59a.34.34,0,0,1-.34-.34Z"/></svg>