<svg xmlns="http://www.w3.org/2000/svg" viewBox="0 0 101.82 77.65"><defs><style>.cls-1,.cls-2,.cls-3{fill:none;stroke:#00adf0;stroke-linecap:round;stroke-linejoin:round;}.cls-1{stroke-width:2.52px;}.cls-2{stroke-width:2.52px;}.cls-3{stroke-width:2.3px;}</style></defs><title>&amp;apos;</title><g id="Capa_3" data-name="Capa 3"><path class="cls-1" d="M1.63,72A18.39,18.39,0,0,1,18.45,61h10A18.39,18.39,0,0,1,45.26,72a1.93,1.93,0,0,1-1.78,2.68H3.42C.06,74.63,1.63,72,1.63,72Z"/><circle class="cls-2" cx="24.24" cy="40.96" r="14.14"/><polyline class="cls-3" points="63.06 20.01 69.57 28.34 81.88 9.76"/><path class="cls-3" d="M82,1.15H64.54a18.67,18.67,0,0,0-17.06,26.3h0L43.36,36l11.29-.35v0a18.54,18.54,0,0,0,9.89,2.86H82A18.69,18.69,0,0,0,82,1.15Z"/></g></svg>