<svg id="Capa_1" data-name="Capa 1" xmlns="http://www.w3.org/2000/svg" viewBox="0 0 107.35 73.54"><defs><style>.cls-1,.cls-2{fill:none;stroke:#00adf0;stroke-linecap:round;stroke-linejoin:round;}.cls-1{stroke-width:2.36px;}.cls-2{stroke-width:2.29px;}</style></defs><title>&amp;apos;</title><circle class="cls-1" cx="36.77" cy="36.77" r="35.59"/><path class="cls-2" d="M59.51,49.37a25.94,25.94,0,0,0-4.38-30.88"/><path class="cls-2" d="M27.76,12.51A25.95,25.95,0,1,0,47.69,60.38"/><path class="cls-1" d="M103.43,19.62a.22.22,0,0,1,0-.08c.3-1.82.91-4.25-.61-5.76-1.23-1.24-1-3.36-.9-4.11a2.43,2.43,0,0,0-.16-4.85h-13a2.43,2.43,0,0,0-.47,4.81c.12.71.36,2.89-.9,4.15-1.52,1.51-.91,3.94-.6,5.76a.22.22,0,0,0,0,.08A7.25,7.25,0,0,0,84,25.29v38c0,1.9.19,4.17,4.91,5.07a7.35,7.35,0,0,0,2.36.39h7.63a7.33,7.33,0,0,0,2.35-.39c4.72-.9,4.91-3.17,4.91-5.07v-38A7.24,7.24,0,0,0,103.43,19.62Z"/></svg>