<svg id="Capa_1" data-name="Capa 1" xmlns="http://www.w3.org/2000/svg" viewBox="0 0 41.27 55.43"><defs><style>.cls-1{fill:none;stroke:#00adf0;stroke-linecap:round;stroke-linejoin:round;stroke-width:1.76px;}</style></defs><title>ICONOS</title><path class="cls-1" d="M7.09,13.74c0-3.49-6.21-3.71-6.21,0V43.37c0,3.33,4.62,6.26,4.67,6.29l.3.19v4.7"/><path class="cls-1" d="M13.73,6.82c-.38-1.3-2.11-1.94-3.17-1.94A3.28,3.28,0,0,0,7.09,8V25.36"/><path class="cls-1" d="M20.11,25.36V3.62c0-1.08-.57-2.74-3.09-2.74a2.85,2.85,0,0,0-3.09,2.74V26"/><path class="cls-1" d="M27.57,33.65V11.08c0-3.06-.84-5-2.46-5.69-2.67-1.06-4.51,1.45-5,1.77"/><path class="cls-1" d="M10.29,39.89a12.37,12.37,0,0,1,9.84-4.61c6,0,9.61-1,11.44-4.63s3.79-7.34,7.45-5.88a2.15,2.15,0,0,1,1.3,1.67c.7,3.42-3.61,11.2-6.68,14.28-4.39,4.38-7.67,7.62-9.14,8.6v5.23"/></svg>