<svg id="Capa_1" data-name="Capa 1" xmlns="http://www.w3.org/2000/svg" xmlns:xlink="http://www.w3.org/1999/xlink" viewBox="0 0 46.65 57.89"><defs><style>.cls-1,.cls-5{fill:none;stroke-miterlimit:10;}.cls-1,.cls-2,.cls-3,.cls-4,.cls-5{stroke:#00adf0;stroke-width:1.6px;}.cls-2,.cls-3,.cls-4{stroke-linecap:round;stroke-linejoin:round;}.cls-2{fill:url(#Degradado_sin_nombre_3);}.cls-3{fill:url(#Degradado_sin_nombre_3-2);}.cls-4{fill:url(#Degradado_sin_nombre_3-3);}.cls-5{fill-rule:evenodd;}</style><linearGradient id="Degradado_sin_nombre_3" x1="27.64" y1="23.74" x2="27.64" y2="23.7" gradientUnits="userSpaceOnUse"><stop offset="0.2" stop-color="#fff"/><stop offset="1" stop-color="#edeef1"/></linearGradient><linearGradient id="Degradado_sin_nombre_3-2" x1="27.64" y1="32.58" x2="27.64" y2="32.54" xlink:href="#Degradado_sin_nombre_3"/><linearGradient id="Degradado_sin_nombre_3-3" x1="27.64" y1="41.42" x2="27.64" y2="41.37" xlink:href="#Degradado_sin_nombre_3"/></defs><title>&amp;apos;</title><path class="cls-1" d="M9.44,51H6.35A5.46,5.46,0,0,1,.8,45.67V6.17A5.46,5.46,0,0,1,6.35.8H31.66a5.48,5.48,0,0,1,5.53,4.89l0,1.16"/><line class="cls-2" x1="36.28" y1="23.72" x2="19.01" y2="23.72"/><line class="cls-3" x1="36.28" y1="32.56" x2="19.01" y2="32.56"/><line class="cls-4" x1="36.28" y1="41.4" x2="19.01" y2="41.4"/><path class="cls-5" d="M36.89,57.09V50.8A2.82,2.82,0,0,1,39.75,48h6.1"/><path class="cls-1" d="M45.85,47.5V12.22A5.46,5.46,0,0,0,40.3,6.85H15a5.46,5.46,0,0,0-5.55,5.37V51.71A5.46,5.46,0,0,0,15,57.09H36.31a1.41,1.41,0,0,0,1-.41l8.17-8.26A1.34,1.34,0,0,0,45.85,47.5Z"/></svg>