<svg id="Capa_1" data-name="Capa 1" xmlns="http://www.w3.org/2000/svg" viewBox="0 0 38.8 52.63"><defs><style>.cls-1,.cls-2{fill:none;stroke:#00adf0;stroke-linecap:round;stroke-linejoin:round;stroke-width:2.39px;}.cls-2{fill-rule:evenodd;}</style></defs><title>&amp;apos;</title><line class="cls-1" x1="28.04" y1="18.07" x2="10.76" y2="18.07"/><line class="cls-1" x1="28.04" y1="26.91" x2="10.76" y2="26.91"/><line class="cls-1" x1="28.04" y1="35.74" x2="10.76" y2="35.74"/><path class="cls-2" d="M28.65,51.43V45.15a2.82,2.82,0,0,1,2.86-2.77h6.1"/><path class="cls-1" d="M37.61,41.85V6.57a5.47,5.47,0,0,0-5.55-5.38H6.74A5.47,5.47,0,0,0,1.19,6.57V46.06a5.46,5.46,0,0,0,5.55,5.37H28.07a1.36,1.36,0,0,0,1-.4l8.18-8.27A1.3,1.3,0,0,0,37.61,41.85Z"/></svg>