<svg id="Capa_1" data-name="Capa 1" xmlns="http://www.w3.org/2000/svg" viewBox="0 0 55.68 36.2"><defs><style>.cls-1{fill:#00adf0;}</style></defs><title>ICONOS</title><path class="cls-1" d="M24.46,36.2H4.5A4.5,4.5,0,0,1,0,31.7V18a4.51,4.51,0,0,1,4.5-4.5h20A4.5,4.5,0,0,1,29,18V31.7A4.49,4.49,0,0,1,24.46,36.2ZM4.5,15a3,3,0,0,0-3,3V31.7a3,3,0,0,0,3,3h20a3,3,0,0,0,3-3V18a3,3,0,0,0-3-3Z"/><path class="cls-1" d="M23.61,14.27H22.13V9.38a7.65,7.65,0,1,0-15.29,0v4.89H5.36V9.38a9.13,9.13,0,1,1,18.25,0Z"/><circle class="cls-1" cx="14.72" cy="23.59" r="2.33"/><rect class="cls-1" x="13.32" y="24.52" width="2.79" height="4.66" rx="1.4"/><path class="cls-1" d="M46,28.24H31.15V26.76H46a8.25,8.25,0,0,0,8.24-8.24V9.72A8.25,8.25,0,0,0,46,1.48H31.15a8.24,8.24,0,0,0-6.31,3l-1.13-1A9.69,9.69,0,0,1,31.15,0H46a9.73,9.73,0,0,1,9.72,9.72v8.8A9.73,9.73,0,0,1,46,28.24Z"/><path class="cls-1" d="M30.44,14a.71.71,0,0,1,0-.5.51.51,0,0,1,.71-.42l1.76.52,0-1.76c0-.37.18-.56.62-.56s.62.19.61.56L34,13.56,35.79,13a.51.51,0,0,1,.71.42.71.71,0,0,1,0,.5.47.47,0,0,1-.39.27l-1.74.3,1.13,1.55c.22.3.16.56-.17.79a.52.52,0,0,1-.83-.14l-1-1.63-1,1.63a.52.52,0,0,1-.83.14.5.5,0,0,1-.16-.79l1.14-1.55-1.76-.3A.49.49,0,0,1,30.44,14Z"/><path class="cls-1" d="M32,17.1a.8.8,0,0,1-.45-.16.69.69,0,0,1-.32-.44.63.63,0,0,1,.14-.47l1.05-1.44-1.61-.27a.58.58,0,0,1-.46-.33h0a.82.82,0,0,1,0-.56.67.67,0,0,1,.31-.45.65.65,0,0,1,.52,0l1.64.48,0-1.64a.58.58,0,0,1,.14-.45.94.94,0,0,1,1.12,0,.62.62,0,0,1,.14.46l-.05,1.64L35.76,13a.65.65,0,0,1,.52,0,.67.67,0,0,1,.31.46.79.79,0,0,1,0,.55.58.58,0,0,1-.45.33l-1.61.27,1,1.44a.63.63,0,0,1,.14.47.71.71,0,0,1-.33.44.69.69,0,0,1-.54.15.61.61,0,0,1-.41-.31l-1-1.51-1,1.51a.61.61,0,0,1-.41.31Zm-1.49-3.18c0,.12.15.19.33.23l1.89.32-1.22,1.66a.46.46,0,0,0-.11.34.52.52,0,0,0,.25.32.55.55,0,0,0,.41.13.48.48,0,0,0,.3-.24l1.11-1.74,1.09,1.74a.48.48,0,0,0,.3.24.55.55,0,0,0,.41-.13.54.54,0,0,0,.26-.32.46.46,0,0,0-.11-.34l-1.22-1.66,1.88-.32c.18,0,.29-.11.33-.23a.66.66,0,0,0,0-.44.58.58,0,0,0-.22-.35.52.52,0,0,0-.39,0l-1.87.54L34,11.79a.42.42,0,0,0-.09-.33.58.58,0,0,0-.43-.13.62.62,0,0,0-.44.13.47.47,0,0,0-.1.33L33,13.67l-1.87-.54a.52.52,0,0,0-.39,0,.58.58,0,0,0-.22.35A.66.66,0,0,0,30.52,13.92Z"/><path class="cls-1" d="M42.47,14a.85.85,0,0,1,0-.5.52.52,0,0,1,.72-.42l1.76.52-.06-1.76c0-.37.19-.56.62-.56s.63.19.61.56l-.06,1.76L47.83,13a.51.51,0,0,1,.71.42.71.71,0,0,1,0,.5.49.49,0,0,1-.39.27l-1.75.3,1.14,1.55a.5.5,0,0,1-.17.79.52.52,0,0,1-.83-.14l-1-1.63-1,1.63a.52.52,0,0,1-.83.14.5.5,0,0,1-.16-.79l1.13-1.55-1.75-.3A.51.51,0,0,1,42.47,14Z"/><path class="cls-1" d="M47,17.1h-.09a.61.61,0,0,1-.41-.31l-1-1.51-1,1.51a.64.64,0,0,1-.41.31.7.7,0,0,1-.54-.15.66.66,0,0,1-.32-.44.59.59,0,0,1,.14-.47l1-1.44-1.61-.27A.58.58,0,0,1,42.4,14h0a.82.82,0,0,1,0-.56A.67.67,0,0,1,42.7,13a.65.65,0,0,1,.52,0l1.64.48,0-1.64a.55.55,0,0,1,.14-.45.73.73,0,0,1,.56-.19.75.75,0,0,1,.56.18.62.62,0,0,1,.14.46l-.05,1.64L47.8,13a.65.65,0,0,1,.52,0,.7.7,0,0,1,.31.46.79.79,0,0,1,0,.55.58.58,0,0,1-.46.33l-1.6.27,1,1.44a.68.68,0,0,1,.14.47.71.71,0,0,1-.33.44A.8.8,0,0,1,47,17.1Zm-4.42-3.18a.43.43,0,0,0,.34.23l1.89.32-1.22,1.66a.46.46,0,0,0-.11.34.52.52,0,0,0,.25.32.55.55,0,0,0,.41.13.48.48,0,0,0,.3-.24l1.1-1.74,1.1,1.74a.48.48,0,0,0,.3.24.55.55,0,0,0,.41-.13.54.54,0,0,0,.26-.32.49.49,0,0,0-.11-.34l-1.22-1.66,1.88-.32c.18,0,.29-.11.33-.23a.66.66,0,0,0,0-.44.58.58,0,0,0-.22-.35.52.52,0,0,0-.39,0L46,13.67,46,11.79a.47.47,0,0,0-.1-.33.55.55,0,0,0-.43-.13.66.66,0,0,0-.44.13.42.42,0,0,0-.09.33L45,13.67l-1.87-.54a.52.52,0,0,0-.39,0,.54.54,0,0,0-.22.35A.74.74,0,0,0,42.55,13.92Z"/><rect class="cls-1" x="30.99" y="20.48" width="4.84" height="1.48"/><rect class="cls-1" x="42.4" y="20.56" width="4.84" height="1.48"/></svg>