<svg id="Capa_1" data-name="Capa 1" xmlns="http://www.w3.org/2000/svg" viewBox="0 0 131.16 87.7"><defs><style>.cls-1{fill:none;stroke:#00adf0;stroke-linecap:round;stroke-linejoin:round;stroke-width:4px;}</style></defs><title>&amp;apos;</title><path class="cls-1" d="M24.45,2h81.45a15,15,0,0,1,15,15V74.76a0,0,0,0,1,0,0H9.48a0,0,0,0,1,0,0V17A15,15,0,0,1,24.45,2Z"/><path class="cls-1" d="M2,74.76H129.16a0,0,0,0,1,0,0v1.15a9.78,9.78,0,0,1-9.78,9.78H11.78A9.78,9.78,0,0,1,2,75.92V74.76A0,0,0,0,1,2,74.76Z"/><circle class="cls-1" cx="65.18" cy="40.45" r="18.71"/><polyline class="cls-1" points="56 42.24 61.55 47.79 74.36 33.1"/></svg>