<svg xmlns="http://www.w3.org/2000/svg" viewBox="0 0 88.04 81.54"><defs><style>.cls-1,.cls-2{fill:none;stroke:#00adf0;stroke-linecap:round;stroke-linejoin:round;}.cls-1{stroke-width:2px;}.cls-2{stroke-width:1.98px;}</style></defs><title>&amp;apos;</title><g id="Capa_3" data-name="Capa 3"><path class="cls-1" d="M64.8,39.09c-6.17-7.32-14.13-18.56-14.13-24a14.14,14.14,0,0,1,28.27,0C78.94,20.52,71,31.77,64.8,39.09Z"/><path class="cls-1" d="M45.88,25.91l-14-6A6.39,6.39,0,0,0,27,19.84L5,28.71a6.4,6.4,0,0,0-4,5.94V71.44a6.41,6.41,0,0,0,8.86,5.92l16.78-7a6.43,6.43,0,0,1,4.91,0l23.27,9.67a6.39,6.39,0,0,0,4.75.06l23.37-9a6.41,6.41,0,0,0,4.1-6V35.63"/><line class="cls-2" x1="29.45" y1="20" x2="29.09" y2="69.38"/><line class="cls-1" x1="57.18" y1="80.04" x2="57.18" y2="45.23"/><circle class="cls-1" cx="65.14" cy="15.13" r="5.65"/></g></svg>