<svg id="Capa_1" data-name="Capa 1" xmlns="http://www.w3.org/2000/svg" viewBox="0 0 91.17 90.26"><defs><style>.cls-1,.cls-2{fill:none;stroke:#00adf0;stroke-linecap:round;stroke-linejoin:round;}.cls-1{stroke-width:2.5px;}.cls-2{stroke-width:2.86px;}</style></defs><title>&amp;apos;</title><rect class="cls-1" x="1.25" y="1.25" width="88.67" height="65.38" rx="7.06"/><rect class="cls-2" x="11.65" y="13.23" width="67.14" height="32.54" rx="4.92"/><line class="cls-1" x1="32.85" y1="55.9" x2="60.72" y2="55.9"/><path class="cls-1" d="M25.71,66.63H67.2a0,0,0,0,1,0,0V83.37A5.64,5.64,0,0,1,61.57,89H31.35a5.64,5.64,0,0,1-5.64-5.64V66.63A0,0,0,0,1,25.71,66.63Z"/><line class="cls-1" x1="34.79" y1="74.97" x2="34.79" y2="79.23"/><line class="cls-1" x1="46.08" y1="74.97" x2="46.08" y2="79.23"/><line class="cls-1" x1="57.38" y1="74.97" x2="57.38" y2="79.23"/></svg>