<svg id="Capa_1" data-name="Capa 1" xmlns="http://www.w3.org/2000/svg" viewBox="0 0 98.9 129.48"><defs><style>.cls-1{fill:none;stroke:#00adf0;stroke-linecap:round;stroke-linejoin:round;stroke-width:4px;}</style></defs><title>&amp;apos;</title><path class="cls-1" d="M63.47,127.48H50.16A3.45,3.45,0,0,1,46.71,124V120.9a34.57,34.57,0,0,1-6.45-2.68l-2.21,2.22a3.43,3.43,0,0,1-2.44,1,3.47,3.47,0,0,1-2.43-1L23.77,111a3.43,3.43,0,0,1,0-4.87L26,103.94a34.39,34.39,0,0,1-2.68-6.46H20.18a3.4,3.4,0,0,1-2.43-1,3.45,3.45,0,0,1-1-2.44V80.72a3.45,3.45,0,0,1,3.44-3.44H23.3A34.57,34.57,0,0,1,26,70.83l-2.2-2.2a3.44,3.44,0,0,1,0-4.87l9.42-9.41a3.45,3.45,0,0,1,4.87,0l2.19,2.19a35.22,35.22,0,0,1,6.45-2.67v-3.1a3.45,3.45,0,0,1,3.45-3.44H63.47a3.45,3.45,0,0,1,3.45,3.44v3.1a35.22,35.22,0,0,1,6.45,2.67l2.19-2.19a3.43,3.43,0,0,1,2.44-1h0a3.41,3.41,0,0,1,2.43,1l9.42,9.41a3.44,3.44,0,0,1,0,4.87l-2.19,2.2a34.93,34.93,0,0,1,2.67,6.45h3.12a3.45,3.45,0,0,1,3.45,3.44V94a3.45,3.45,0,0,1-3.45,3.44H90.33a35,35,0,0,1-2.67,6.46l2.21,2.21a3.45,3.45,0,0,1,0,4.87l-9.42,9.42a3.44,3.44,0,0,1-4.87,0l-2.21-2.22a34.57,34.57,0,0,1-6.45,2.68V124A3.45,3.45,0,0,1,63.47,127.48Z"/><path class="cls-1" d="M58.06,96.05a8.66,8.66,0,1,1,8.27-8.65A8.48,8.48,0,0,1,58.06,96.05Zm0-16.11a7.47,7.47,0,1,0,7.08,7.46A7.28,7.28,0,0,0,58.06,79.94Z"/><polyline class="cls-1" points="11.07 97.47 2 97.47 2 21.8 31.48 21.8 31.48 46.3"/><polyline class="cls-1" points="38.29 45.68 38.29 2 67.76 2 67.76 39.04"/></svg>