<svg xmlns="http://www.w3.org/2000/svg" viewBox="0 0 67.26 66.26"><defs><style>.cls-1,.cls-2{fill:none;stroke:#00adf0;stroke-linecap:round;stroke-linejoin:round;stroke-width:2px;}.cls-1{fill-rule:evenodd;}.cls-3{fill:#00adf0;}</style></defs><title>&amp;apos;</title><g id="Capa_1" data-name="Capa 1"><polyline class="cls-1" points="51.13 51.31 57.61 61.03 65.17 51.31"/><path class="cls-2" d="M36.11,61.17H10.2c-3.86,0-7-3.68-7-8.19V13.28c0-4.52,3.15-8.19,7-8.19H36.11c3.87,0,7,3.67,7,8.19V53C43.13,57.49,40,61.17,36.11,61.17Z"/><path class="cls-3" d="M30,39.9H18.26a1.31,1.31,0,0,1,0-2.6H30a1.31,1.31,0,0,1,0,2.6Z"/><path class="cls-3" d="M30,26.22H18.26a1.31,1.31,0,0,1,0-2.6H30a1.31,1.31,0,0,1,0,2.6Z"/><path class="cls-2" d="M65.17,51.32V9.67A2.64,2.64,0,0,0,62.53,7H53.77a2.64,2.64,0,0,0-2.64,2.63V51.32h14"/></g></svg>