<svg xmlns="http://www.w3.org/2000/svg" viewBox="0 0 52.77 46.07"><defs><style>.cls-1{fill:none;stroke:#00adf0;stroke-miterlimit:10;stroke-width:1.6px;}</style></defs><title>&amp;apos;</title><g id="Capa_1" data-name="Capa 1"><path class="cls-1" d="M6.68,21.24a19.38,19.38,0,0,0,12,16.85"/><path class="cls-1" d="M35.56,3.32a19.38,19.38,0,0,0-17.22-.94"/><path class="cls-1" d="M33.92,37.82A19.37,19.37,0,0,0,45.3,21.62"/><path class="cls-1" d="M26.45,45.27H19.36a1.22,1.22,0,0,1-1.06-1.82l7.1-12.29a1.22,1.22,0,0,1,2.11,0l7.1,12.29a1.22,1.22,0,0,1-1.06,1.82Z"/><rect class="cls-1" x="0.8" y="3.32" width="15.75" height="15.75" rx="1.28"/><polygon class="cls-1" points="47.3 3.32 38.2 3.32 33.65 11.2 38.2 19.07 47.3 19.07 51.84 11.2 47.3 3.32"/></g></svg>