<svg id="Capa_1" data-name="Capa 1" xmlns="http://www.w3.org/2000/svg" viewBox="0 0 98.33 114.77"><defs><style>.cls-1{fill:none;stroke:#00adf0;stroke-linecap:round;stroke-linejoin:round;stroke-width:4px;}</style></defs><title>&amp;apos;</title><path class="cls-1" d="M96.23,32.13v-.08c0-1.07-.08-2.19-.09-3.45a11.75,11.75,0,0,0-11-11.52c-12.73-.73-22.58-4.9-31-13.12L54,3.9a7.08,7.08,0,0,0-9.63,0L44.34,4c-8.43,8.19-18.29,12.33-31,13A11.73,11.73,0,0,0,2.24,28.45c0,1.25-.06,2.37-.11,3.44v.2c-.27,13-.61,29.15,4.78,43.83A55.83,55.83,0,0,0,20.26,96.79c6.71,6.57,15.51,11.8,26.16,15.53a10,10,0,0,0,1.07.3,8.19,8.19,0,0,0,3.12,0,7.8,7.8,0,0,0,1.08-.29c10.64-3.7,19.45-8.9,26.18-15.46A55.71,55.71,0,0,0,91.29,76C96.74,61.34,96.46,45.14,96.23,32.13Z"/><circle class="cls-1" cx="49.16" cy="57.39" r="18.71"/><polyline class="cls-1" points="39.98 59.18 45.54 64.73 58.35 50.04"/></svg>