<svg id="Capa_1" data-name="Capa 1" xmlns="http://www.w3.org/2000/svg" viewBox="0 0 187.13 132.15"><defs><style>.cls-1{fill:#ffb70a;}.cls-2{fill:#f9ac00;}.cls-3{fill:#f9bb3e;}.cls-4{fill:#fff;}.cls-5{fill:#00ace8;}</style></defs><title>&amp;apos;</title><path class="cls-1" d="M23.85,12.74H165.29A7.66,7.66,0,0,1,173,20.4v83.28a11.58,11.58,0,0,1-11.58,11.58H27.94a11.75,11.75,0,0,1-11.75-11.75V20.4a7.66,7.66,0,0,1,7.66-7.66Z"/><path class="cls-2" d="M94.57,54.42,16.19,103.67v1.57a10,10,0,0,0,10,10H162.93a10,10,0,0,0,10-10v-1.57Z"/><path class="cls-3" d="M24,15.57,94.57,67.25l70.58-51.68a1.57,1.57,0,0,0-.84-2.83H24.83A1.57,1.57,0,0,0,24,15.57Z"/><path class="cls-4" d="M94.46,89.87s4-9.53,16.65-24l-8.87,0s-6.4,7.81-7.72,10.88c-1.29-3.08-7.62-10.95-7.62-10.95l-8.87,0C90.53,80.3,94.46,89.87,94.46,89.87"/><path class="cls-4" d="M77.49,61.63c0,.3,0,.59,0,.88l8.46,0c0-.2,0-.41,0-.62a8.63,8.63,0,0,1,17.25.09c0,.21,0,.41,0,.62l8.47,0c0-.29,0-.58,0-.88a17.07,17.07,0,0,0-17-17.16,16.85,16.85,0,0,0-4.57.59,17.09,17.09,0,0,0-12.6,16.4"/><path class="cls-5" d="M26.38,19.6S37.75,24.4,55,39.47L55,28.89s-9.33-7.64-13-9.22c3.67-1.54,13.06-9.09,13.06-9.09L55.16,0C37.8,14.91,26.38,19.6,26.38,19.6"/><path class="cls-5" d="M0,19.6s11.37,4.8,28.6,19.87l0-10.58s-9.33-7.64-13-9.22c3.67-1.54,13.06-9.09,13.06-9.09L28.77,0C11.41,14.91,0,19.6,0,19.6"/><path class="cls-5" d="M160.75,112.55s-11.37-4.8-28.6-19.86l0,10.58s9.32,7.63,13,9.21C141.42,114,132,121.57,132,121.57l0,10.58c17.36-14.91,28.77-19.6,28.77-19.6"/><path class="cls-5" d="M187.13,112.55s-11.37-4.8-28.6-19.86l0,10.58s9.32,7.63,13,9.21c-3.67,1.54-13.07,9.09-13.07,9.09l0,10.58c17.36-14.91,28.77-19.6,28.77-19.6"/></svg>