<svg id="Capa_1" data-name="Capa 1" xmlns="http://www.w3.org/2000/svg" viewBox="0 0 639.08 142.35"><defs><style>.cls-1{fill:#646464;}.cls-2{fill:#fcb912;}.cls-3{fill:#1aaae2;}</style></defs><title>&amp;apos;</title><path class="cls-1" d="M21.82,23c0,4.24-2.91,6.8-8.23,6.8H2.7V5.25H12.89c4.86,0,8,2.63,8,6.59a5.45,5.45,0,0,1-3.51,5.29A5.5,5.5,0,0,1,21.82,23ZM12.71,9.11H7.18v6.37h5.53c2.52,0,3.75-1.23,3.75-3.19S15.23,9.11,12.71,9.11Zm.46,16.81c2.73,0,4-1.13,4-3.3s-1.29-3.32-4-3.32h-6v6.62Z"/><path class="cls-1" d="M30.4,25.63H41.29v4.14H25.88V5.25H30.4Z"/><path class="cls-1" d="M42.83,17.51a12.33,12.33,0,1,1,24.65,0,12.33,12.33,0,1,1-24.65,0Zm20,0c0-5-3.26-8.4-7.7-8.4s-7.67,3.36-7.67,8.4,3.25,8.41,7.67,8.41S62.86,22.55,62.86,17.51Z"/><path class="cls-1" d="M83,16H94v13.8H90.6l-.35-3.4c-1.65,2.38-4.49,3.68-8,3.68-6.8,0-11.88-5.05-11.88-12.43S75.71,5,82.89,5c5.64,0,10,3.19,11,8H89.06c-.85-2.48-3.19-3.85-6.13-3.85-4.52,0-7.85,3.22-7.85,8.48S78.38,26,82.86,26c3.88,0,6.76-2.45,7.07-6.23H83Z"/><path class="cls-2" d="M36.84,66.67H65.69v36.2h-9L55.77,94c-4.32,6.25-11.76,9.65-20.86,9.65C17.09,103.61,3.77,90.38,3.77,71c0-19.66,13.87-33.16,32.7-33.16,14.8,0,26.28,8.36,28.85,20.85H52.64c-2.2-6.52-8.36-10.1-16.07-10.1C24.71,48.58,16,57,16,70.81S24.62,93,36.38,93c10.2,0,17.73-6.43,18.56-16.35H36.84Z"/><path class="cls-2" d="M90.13,92.31h32v10.56H78.28V38.56h43.18V49.13H90.13v15.8h26.09V75.4H90.13Z"/><path class="cls-2" d="M130,70.72c0-19.39,14.24-32.89,32.34-32.89s32.34,13.5,32.34,32.89-14.24,32.89-32.34,32.89S130,90.1,130,70.72Zm52.55,0c0-13.23-8.54-22-20.21-22s-20.12,8.82-20.12,22,8.54,22,20.12,22S182.55,84,182.55,70.72Z"/><path class="cls-3" d="M245.85,38.56h12.41l-23.07,64.31h-14.6L197.53,38.56h12.58L228,89.92Z"/><path class="cls-3" d="M266.16,102.87V38.56H278v64.31Z"/><path class="cls-3" d="M288.85,70.81c0-19.57,14-33,32.25-33,15.8,0,28.38,10.29,29.58,25.72H338.73C337,53.81,330,48.67,321.1,48.67c-11.49,0-20,8.63-20,22,0,13.78,8.91,22,20,22,9.27,0,16.26-5.61,17.82-14.89h11.85c-1.29,15.25-13.6,25.73-29.86,25.73C302.54,103.61,288.85,90.19,288.85,70.81Z"/><path class="cls-3" d="M404,38.56V49.49H385.13v53.38H373.19V49.49H354.45V38.56Z"/><path class="cls-3" d="M407.36,70.72c0-19.39,14.24-32.89,32.34-32.89S472,51.33,472,70.72s-14.24,32.89-32.34,32.89S407.36,90.1,407.36,70.72Zm52.56,0c0-13.23-8.55-22-20.22-22s-20.12,8.82-20.12,22,8.55,22,20.12,22S459.92,84,459.92,70.72Z"/><path class="cls-3" d="M520,102.87,505.21,79.63H494.74v23.24H482.88V38.56h26.46c13.42,0,22.51,8.55,22.51,20.58,0,9.37-5.51,16.35-14.42,18.93l16.17,24.8ZM494.74,49.13V69.06h14.05c7.26,0,11.12-3.86,11.12-9.92s-3.86-10-11.12-10Z"/><path class="cls-3" d="M544.07,102.87V38.56h11.85v64.31Z"/><path class="cls-3" d="M614.54,102.87l-5.61-15.43H581.55L576,102.87h-12l24-64.31h15l21.62,58,2.35,6.33h-12.3Zm-29.4-25.45h20.21L595.24,49.49Z"/><path class="cls-1" d="M553.31,109.74v4.17h-7.18v20.35h-4.55V113.91h-7.14v-4.17Z"/><path class="cls-1" d="M556.82,134.26V109.74h4.51v24.52Z"/><path class="cls-1" d="M587.56,109.74h5.82v24.52h-4.45V116.47l-7.29,17.79h-3.32l-7.25-17.72v17.72h-4.34V109.74h5.88L580.1,128Z"/><path class="cls-1" d="M603.29,130.23h12.18v4h-16.7V109.74h16.46v4H603.29v6h9.94v4h-9.94Z"/><path class="cls-1" d="M618.73,126.38h4.48c.21,2.66,2.31,4.23,5.47,4.23s4.65-1.5,4.65-3.46c0-1.65-1.12-2.7-4.41-3.33l-3.36-.63c-4.31-.77-6.55-3-6.55-6.34,0-4.27,3.61-7.39,9.14-7.39s9.14,3,9.35,7.6h-4.45c-.31-2.34-2.06-3.71-5-3.71s-4.56,1.33-4.56,3.22c0,1.51,1,2.45,4.24,3l3.36.63c4.52.84,6.76,3.15,6.76,6.66,0,4.44-3.61,7.67-9.42,7.67S618.84,131.28,618.73,126.38Z"/></svg>