<svg xmlns="http://www.w3.org/2000/svg" xmlns:xlink="http://www.w3.org/1999/xlink" viewBox="0 0 1920 1204"><defs><style>.cls-1{fill:none;}.cls-2{isolation:isolate;}.cls-3{clip-path:url(#clip-path);}.cls-4{opacity:0.5;mix-blend-mode:overlay;}.cls-5{fill:#00adf0;fill-rule:evenodd;}</style><clipPath id="clip-path"><rect class="cls-1" width="1927" height="1227"/></clipPath></defs><title>&amp;apos;</title><g class="cls-2"><g id="Capa_1" data-name="Capa 1"><g class="cls-3"><g class="cls-4"><path class="cls-5" d="M-3.17,1148.63a10.18,10.18,0,0,0-14.52.83,10.18,10.18,0,0,0,.83,14.52,10.18,10.18,0,0,0,14.52-.83A10.18,10.18,0,0,0-3.17,1148.63Z"/><path class="cls-5" d="M2.72,1100.75a10.22,10.22,0,0,0-14.36.76,10.22,10.22,0,0,0,.84,14.36,10.24,10.24,0,0,0,14.19-.76A10.24,10.24,0,0,0,2.72,1100.75Z"/><path class="cls-5" d="M-1.46,929.36a10.09,10.09,0,0,0-14.16.94,10.11,10.11,0,0,0,1,14.16,10.09,10.09,0,0,0,14-.94A10.08,10.08,0,0,0-1.46,929.36Z"/><path class="cls-5" d="M-5.81,1053.82a10,10,0,0,0,1.29,14.1,10,10,0,0,0,14.08-1.38,10,10,0,0,0-1.26-13.92A10,10,0,0,0-5.81,1053.82Z"/><path class="cls-5" d="M17.88,1175.86a9.85,9.85,0,1,0,1,13.86A9.77,9.77,0,0,0,17.88,1175.86Z"/><path class="cls-5" d="M5.1,895.4a9.66,9.66,0,0,0-.72-13.85,9.66,9.66,0,0,0-13.84.8A9.67,9.67,0,0,0-8.76,896,9.67,9.67,0,0,0,5.1,895.4Z"/><path class="cls-5" d="M13.88,1004.62a9.72,9.72,0,1,0,.81,13.68A9.66,9.66,0,0,0,13.88,1004.62Z"/><path class="cls-5" d="M24.55,1141.67a9.69,9.69,0,1,0-13.68.8A9.72,9.72,0,0,0,24.55,1141.67Z"/><path class="cls-5" d="M.29,710.18a9.69,9.69,0,0,0-13.67.84,9.71,9.71,0,0,0,.84,13.67,9.72,9.72,0,0,0,13.68-.84A9.71,9.71,0,0,0,.29,710.18Z"/><path class="cls-5" d="M-3.06,847.6a9.75,9.75,0,0,0,13.69-.73,9.76,9.76,0,0,0-.72-13.53,9.74,9.74,0,0,0-13.69.73A9.75,9.75,0,0,0-3.06,847.6Z"/><path class="cls-5" d="M20.55,970.19a9.73,9.73,0,0,0-.82-13.54,9.74,9.74,0,0,0-13.7.91A9.75,9.75,0,0,0,7,971.1,9.75,9.75,0,0,0,20.55,970.19Z"/><path class="cls-5" d="M29.21,1079.73a9.55,9.55,0,1,0,.76,13.52A9.66,9.66,0,0,0,29.21,1079.73Z"/><path class="cls-5" d="M6.18,662.29a9.66,9.66,0,0,0-13.52.77,9.64,9.64,0,0,0,.86,13.51,9.63,9.63,0,0,0,13.34-.75A9.66,9.66,0,0,0,6.18,662.29Z"/><path class="cls-5" d="M15.57,785.37a9.41,9.41,0,1,0,.88,13.24A9.36,9.36,0,0,0,15.57,785.37Z"/><path class="cls-5" d="M25.86,921.65a9.31,9.31,0,1,0-14-12.27,9.17,9.17,0,0,0,.82,13A9.19,9.19,0,0,0,25.86,921.65Z"/><path class="cls-5" d="M35.62,1045.09a9.26,9.26,0,1,0-13,.65A9.16,9.16,0,0,0,35.62,1045.09Z"/><path class="cls-5" d="M11.61,614.2a9.17,9.17,0,0,0-13.16.68,9.17,9.17,0,0,0,.68,13,9.16,9.16,0,0,0,13.16-.69A9.16,9.16,0,0,0,11.61,614.2Z"/><path class="cls-5" d="M8.38,738.29a9.21,9.21,0,1,0,13-.79A9.22,9.22,0,0,0,8.38,738.29Z"/><path class="cls-5" d="M17.48,566.25a9.25,9.25,0,0,0-12.89.51,9.27,9.27,0,0,0,.61,13.06,9.25,9.25,0,0,0,12.88-.68A9.26,9.26,0,0,0,17.48,566.25Z"/><path class="cls-5" d="M41.55,996.89a9.15,9.15,0,1,0-12.88.77A9.25,9.25,0,0,0,41.55,996.89Z"/><path class="cls-5" d="M45.28,1167.93a9.21,9.21,0,1,0-13,.88A9.23,9.23,0,0,0,45.28,1167.93Z"/><path class="cls-5" d="M18.05,861.26a9.16,9.16,0,0,0,13.54,12.35,9.16,9.16,0,1,0-13.54-12.35Z"/><path class="cls-5" d="M27,689.32a9.08,9.08,0,1,0,.56,12.86A9.19,9.19,0,0,0,27,689.32Z"/><path class="cls-5" d="M51.05,1119.86a9.07,9.07,0,1,0-12.85.71A9.18,9.18,0,0,0,51.05,1119.86Z"/><path class="cls-5" d="M37.42,825.34a8.94,8.94,0,1,0-12.57.77A8.9,8.9,0,0,0,37.42,825.34Z"/><path class="cls-5" d="M34.5,949.12a8.85,8.85,0,1,0-.85-12.53A8.74,8.74,0,0,0,34.5,949.12Z"/><path class="cls-5" d="M33.38,653.76a8.78,8.78,0,1,0-12.33.89A8.69,8.69,0,0,0,33.38,653.76Z"/><path class="cls-5" d="M43.27,1060.38a8.77,8.77,0,1,0,12.34-.87A8.68,8.68,0,0,0,43.27,1060.38Z"/><path class="cls-5" d="M39.38,889a8.72,8.72,0,1,0,12.35-.68A8.73,8.73,0,0,0,39.38,889Z"/><path class="cls-5" d="M29.74,765.3a8.72,8.72,0,1,0,12.35-.8A8.71,8.71,0,0,0,29.74,765.3Z"/><path class="cls-5" d="M48.93,1012.09a8.66,8.66,0,1,0,12.22-.8A8.77,8.77,0,0,0,48.93,1012.09Z"/><path class="cls-5" d="M38.1,593.83A8.66,8.66,0,1,0,38.86,606,8.78,8.78,0,0,0,38.1,593.83Z"/><path class="cls-5" d="M71.1,1134.78a8.59,8.59,0,1,0,.58,12.17A8.71,8.71,0,0,0,71.1,1134.78Z"/><path class="cls-5" d="M47.59,716.92a8.58,8.58,0,1,0,.73,12.16A8.7,8.7,0,0,0,47.59,716.92Z"/><path class="cls-5" d="M45.1,840.83A8.45,8.45,0,1,0,57,840,8.4,8.4,0,0,0,45.1,840.83Z"/><path class="cls-5" d="M55.23,964.11a8.34,8.34,0,1,0,11.69-.57A8.22,8.22,0,0,0,55.23,964.11Z"/><path class="cls-5" d="M77.15,1098.23a8.28,8.28,0,1,0-11.67.8A8.22,8.22,0,0,0,77.15,1098.23Z"/><path class="cls-5" d="M53.28,669.09a8.27,8.27,0,1,0,.79,11.66A8.21,8.21,0,0,0,53.28,669.09Z"/><path class="cls-5" d="M62.83,792.14a8.26,8.26,0,1,0,.73,11.7A8.23,8.23,0,0,0,62.83,792.14Z"/><path class="cls-5" d="M73,926.88a8.21,8.21,0,1,0-11.55.67A8.29,8.29,0,0,0,73,926.88Z"/><path class="cls-5" d="M47.11,621.78a8.15,8.15,0,1,0,11.52-1.08A8.26,8.26,0,0,0,47.11,621.78Z"/><path class="cls-5" d="M70.73,1039.39a8.14,8.14,0,1,0,11.52-.71A8.26,8.26,0,0,0,70.73,1039.39Z"/><path class="cls-5" d="M69.29,755.7a8,8,0,1,0-11.31.64A8.08,8.08,0,0,0,69.29,755.7Z"/><path class="cls-5" d="M78,867.4a7.89,7.89,0,1,0,.87,11A7.8,7.8,0,0,0,78,867.4Z"/><path class="cls-5" d="M87.57,990.54a7.81,7.81,0,1,0,.69,11A7.73,7.73,0,0,0,87.57,990.54Z"/><path class="cls-5" d="M98.25,1124.8a7.79,7.79,0,1,0-11,.86A7.73,7.73,0,0,0,98.25,1124.8Z"/><path class="cls-5" d="M74,696.09a7.79,7.79,0,1,0,.71,11A7.74,7.74,0,0,0,74,696.09Z"/><path class="cls-5" d="M84,819.58a7.74,7.74,0,1,0,.59,10.89A7.77,7.77,0,0,0,84,819.58Z"/><path class="cls-5" d="M94,953.51a7.67,7.67,0,1,0-10.87.49A7.8,7.8,0,0,0,94,953.51Z"/><path class="cls-5" d="M66.06,576.17c-2.61-1.72-4.58-3.21-6.72-4.36a4.12,4.12,0,0,0-3.07-.15,7.83,7.83,0,0,0-4.6,9.31,8,8,0,0,0,8.39,5.85,7.83,7.83,0,0,0,7.13-7.53C67.19,578.1,66.35,576.91,66.06,576.17Z"/><path class="cls-5" d="M80.39,659a7.58,7.58,0,1,0-10.7.47A7.66,7.66,0,0,0,80.39,659Z"/><path class="cls-5" d="M103,1065.77a7.58,7.58,0,1,0,.55,10.7A7.66,7.66,0,0,0,103,1065.77Z"/><path class="cls-5" d="M78.83,772a7.41,7.41,0,1,0,10.38-.65A7.31,7.31,0,0,0,78.83,772Z"/><path class="cls-5" d="M99.65,905.27a7.32,7.32,0,1,0-10.39.4A7.22,7.22,0,0,0,99.65,905.27Z"/><path class="cls-5" d="M85.64,600.47a7.31,7.31,0,1,0,.47,10.37A7.24,7.24,0,0,0,85.64,600.47Z"/><path class="cls-5" d="M109.19,1028.22a7.26,7.26,0,1,0-10.21.57A7.27,7.27,0,0,0,109.19,1028.22Z"/><path class="cls-5" d="M84.87,724.09a7.25,7.25,0,1,0,10.24-.57A7.31,7.31,0,0,0,84.87,724.09Z"/><path class="cls-5" d="M105.24,856.66a7.17,7.17,0,1,0-10,.8A7.3,7.3,0,0,0,105.24,856.66Z"/><path class="cls-5" d="M114.38,970a7.06,7.06,0,1,0,.62,10A7.11,7.11,0,0,0,114.38,970Z"/><path class="cls-5" d="M100.75,675.69a6.91,6.91,0,1,0,.69,9.7A6.8,6.8,0,0,0,100.75,675.69Z"/><path class="cls-5" d="M123.85,1093.2a6.9,6.9,0,1,0,.63,9.69A6.77,6.77,0,0,0,123.85,1093.2Z"/><path class="cls-5" d="M110.26,798.81a6.82,6.82,0,1,0,.68,9.53A6.77,6.77,0,0,0,110.26,798.81Z"/><path class="cls-5" d="M119.72,921.86a6.76,6.76,0,1,0,.64,9.57A6.83,6.83,0,0,0,119.72,921.86Z"/><path class="cls-5" d="M106.25,627.49a6.74,6.74,0,1,0,.51,9.56A6.83,6.83,0,0,0,106.25,627.49Z"/><path class="cls-5" d="M129.63,1045.24a6.74,6.74,0,1,0,.61,9.56A6.83,6.83,0,0,0,129.63,1045.24Z"/><path class="cls-5" d="M116,750.82a6.63,6.63,0,1,0,.79,9.35A6.73,6.73,0,0,0,116,750.82Z"/><path class="cls-5" d="M116,875.05a6.48,6.48,0,1,0,9.1-.71A6.42,6.42,0,0,0,116,875.05Z"/><path class="cls-5" d="M125.71,998.07a6.36,6.36,0,1,0,8.89-.56A6.28,6.28,0,0,0,125.71,998.07Z"/><path class="cls-5" d="M112.3,703.61a6.29,6.29,0,1,0,8.89-.34A6.33,6.33,0,0,0,112.3,703.61Z"/><path class="cls-5" d="M141,958.41a6.17,6.17,0,1,0-8.72.47A6.29,6.29,0,0,0,141,958.41Z"/><path class="cls-5" d="M131.5,835.32a6.2,6.2,0,1,0-8.75.6A6.35,6.35,0,0,0,131.5,835.32Z"/><path class="cls-5" d="M126.85,655.36a6,6,0,1,0,.52,8.45A6,6,0,0,0,126.85,655.36Z"/><path class="cls-5" d="M136.9,786.66a5.89,5.89,0,1,0-8.19.82A5.79,5.79,0,0,0,136.9,786.66Z"/><path class="cls-5" d="M137.9,902.45a5.81,5.81,0,1,0,8.23-.55A5.86,5.86,0,0,0,137.9,902.45Z"/><path class="cls-5" d="M150,1072.7a6.29,6.29,0,0,0-7-.79,6.13,6.13,0,0,0-3.2,6,6,6,0,0,0,4.54,5.32c1.23.31,2.14.39,2.82-1.21a23.28,23.28,0,0,1,3.27-4.65C151.93,1075.44,151.85,1074.33,150,1072.7Z"/><path class="cls-5" d="M155.59,1025a5.71,5.71,0,1,0,.55,8A5.83,5.83,0,0,0,155.59,1025Z"/><path class="cls-5" d="M141.9,730.68a5.5,5.5,0,1,0,.58,7.76A5.42,5.42,0,0,0,141.9,730.68Z"/><path class="cls-5" d="M151.56,853.86a5.47,5.47,0,1,0,.29,7.77A5.38,5.38,0,0,0,151.56,853.86Z"/><path class="cls-5" d="M161.32,977.24a5.36,5.36,0,1,0,.45,7.56A5.32,5.32,0,0,0,161.32,977.24Z"/><path class="cls-5" d="M147.4,682.54a5.29,5.29,0,1,0,.46,7.43A5.37,5.37,0,0,0,147.4,682.54Z"/><path class="cls-5" d="M157.28,806.08a5.14,5.14,0,1,0,.31,7.22A5.22,5.22,0,0,0,157.28,806.08Z"/><path class="cls-5" d="M166.65,929.24a4.93,4.93,0,1,0,.37,6.92A4.82,4.82,0,0,0,166.65,929.24Z"/><path class="cls-5" d="M162.49,757.83a4.82,4.82,0,1,0,.56,6.75A4.9,4.9,0,0,0,162.49,757.83Z"/><path class="cls-5" d="M165.85,881.67a4.66,4.66,0,1,0,6.55-.27A4.74,4.74,0,0,0,165.85,881.67Z"/><path class="cls-5" d="M182.16,1010.84a4.47,4.47,0,1,0-6.26.45A4.35,4.35,0,0,0,182.16,1010.84Z"/><path class="cls-5" d="M168.22,710.24a4.36,4.36,0,1,0,.3,6.11A4.39,4.39,0,0,0,168.22,710.24Z"/><path class="cls-5" d="M177.61,833.34a4.21,4.21,0,1,0,.4,5.89A4.32,4.32,0,0,0,177.61,833.34Z"/><path class="cls-5" d="M181.83,957.16a4,4,0,1,0,5.59-.21A3.86,3.86,0,0,0,181.83,957.16Z"/><path class="cls-5" d="M177.86,785.92a3.84,3.84,0,1,0,5.42-.35A3.93,3.93,0,0,0,177.86,785.92Z"/><path class="cls-5" d="M192.61,908.75a3.59,3.59,0,1,0,.5,5A3.55,3.55,0,0,0,192.61,908.75Z"/><path class="cls-5" d="M41.51,559.54l-11.75-7.06C29,557.6,36,562.47,41.51,559.54Z"/><path class="cls-5" d="M184.12,738.18a3.4,3.4,0,1,0,5.18,4.39,3.61,3.61,0,0,0-.45-4.75A3.38,3.38,0,0,0,184.12,738.18Z"/><path class="cls-5" d="M193.62,861.68a3.11,3.11,0,1,0,4.61,4.17,2.87,2.87,0,0,0-.26-4.31C196.56,860.25,195,860.41,193.62,861.68Z"/><path class="cls-5" d="M204.57,817.29c-.38-1.22-.43-2.72-1.2-3.58-1-1.14-2.59-.85-3.58.37s-1,2.92.46,3.74c.95.54,2.38.24,3.6.31Z"/></g><g class="cls-4"><path class="cls-5" d="M1038.47-131.19c134.38,104.74,272.44,47.54,404.3,21.68,308.3-60.45,315.51-680,470.79-815.71,89.59-126.61,381-211,271.46,21.3l-52.49,25.12c102.47,131.57,196.83,489.15,196,770.27-.67,239.09-132.77,404.87-263,502-185.12,135.8-409.4,191.7-633.18,186.05A1028.75,1028.75,0,0,1,1094.06,514c-83.79-31.91-128.87-54.09-225-139.2s-165-227-297.49-229.19C-355.23,130.4,129.61-64.06,112.65-118,97-167.27,101.14-995,540.31-141.73,625,22.75,872.88-260.26,1038.47-131.19Z"/></g></g></g></g></svg>