<svg xmlns="http://www.w3.org/2000/svg" xmlns:xlink="http://www.w3.org/1999/xlink" viewBox="0 0 200 200"><defs><style>.cls-1,.cls-3{fill:none;}.cls-2{isolation:isolate;}.cls-3{stroke:#00adf0;stroke-linecap:round;stroke-linejoin:round;stroke-width:6.27px;}.cls-4{clip-path:url(#clip-path);}.cls-5{opacity:0.5;mix-blend-mode:overlay;}.cls-6{fill:#00adf0;fill-rule:evenodd;}</style><clipPath id="clip-path"><rect class="cls-1" x="7.5" y="571.5" width="1927" height="1227"/></clipPath></defs><title>&amp;apos;</title><g class="cls-2"><g id="Capa_1" data-name="Capa 1"><path class="cls-3" d="M152.22,53.37a73.31,73.31,0,0,1,22,52.33v51.21"/><path class="cls-3" d="M67.13,39.64a72.81,72.81,0,0,1,32.15-7.45h1.44a72.88,72.88,0,0,1,36.81,10"/><path class="cls-3" d="M25.76,156.91V105.7A73.43,73.43,0,0,1,51.52,49.93"/><path class="cls-3" d="M143.12,86.53a45.64,45.64,0,0,1,3.52,17.62v52.3"/><path class="cls-3" d="M69.09,69.51A46,46,0,0,1,99.55,58h.9a46.12,46.12,0,0,1,35.43,16.64"/><path class="cls-3" d="M53.36,159.29V104.15A45.8,45.8,0,0,1,58.55,83"/><path class="cls-3" d="M83.63,157.17V108.72a16.26,16.26,0,0,1,16.21-16.2h.32a16.26,16.26,0,0,1,16.21,16.2v48.45"/><g class="cls-4"><g class="cls-5"><path class="cls-6" d="M1046,440.31c134.38,104.74,272.44,47.54,404.3,21.68,308.3-60.45,315.51-680,470.79-815.71,89.59-126.61,381-211,271.46,21.3L2140-307.3c102.47,131.57,196.83,489.15,196,770.27-.67,239.09-132.77,404.87-263,502-185.12,135.8-409.4,191.7-633.18,186a1028.75,1028.75,0,0,1-338.31-65.52c-83.79-31.91-128.87-54.09-225-139.2s-165-227-297.49-229.19c-926.81-15.2-442-209.66-458.93-263.56-15.62-49.31-11.51-877,427.66-23.77C632.47,594.25,880.38,311.24,1046,440.31Z"/></g></g></g></g></svg>