<svg xmlns="http://www.w3.org/2000/svg" xmlns:xlink="http://www.w3.org/1999/xlink" viewBox="0 0 200 200"><defs><style>.cls-1,.cls-3,.cls-4{fill:none;}.cls-2{isolation:isolate;}.cls-3,.cls-4{stroke:#00adf0;stroke-linecap:round;stroke-linejoin:round;}.cls-3{stroke-width:5.15px;}.cls-4{stroke-width:6.27px;}.cls-5{clip-path:url(#clip-path);}.cls-6{opacity:0.5;mix-blend-mode:overlay;}.cls-7{fill:#00adf0;fill-rule:evenodd;}</style><clipPath id="clip-path"><rect class="cls-1" x="-1166.5" y="571.5" width="1927" height="1227"/></clipPath></defs><title>&amp;apos;</title><g class="cls-2"><g id="Capa_1" data-name="Capa 1"><circle class="cls-3" cx="72.6" cy="79.97" r="13.73"/><circle class="cls-3" cx="41.05" cy="124.81" r="13.73"/><circle class="cls-3" cx="112.45" cy="111.52" r="13.73"/><circle class="cls-3" cx="158.95" cy="53.41" r="13.73"/><line class="cls-4" x1="49.08" y1="112.06" x2="58.1" y2="98.88"/><line class="cls-4" x1="92.97" y1="93.9" x2="101.27" y2="102.2"/><line class="cls-4" x1="131.16" y1="95.56" x2="151.09" y2="65.68"/><line class="cls-4" x1="28.21" y1="160.32" x2="166.03" y2="160.32"/><g class="cls-5"><g class="cls-6"><path class="cls-7" d="M-128,440.31C6.35,545.05,144.41,487.85,276.27,462c308.3-60.45,315.51-680,470.79-815.71,89.59-126.61,381-211,271.46,21.3L966-307.3c102.47,131.57,196.83,489.15,196,770.27-.67,239.09-132.77,404.87-263,502-185.12,135.8-409.4,191.7-633.18,186a1028.75,1028.75,0,0,1-338.31-65.52c-83.79-31.91-128.87-54.09-225-139.2s-165-227-297.49-229.19c-926.81-15.2-442-209.66-458.93-263.56-15.62-49.31-11.51-877,427.66-23.77C-541.53,594.25-293.62,311.24-128,440.31Z"/></g></g></g></g></svg>