<svg xmlns="http://www.w3.org/2000/svg" xmlns:xlink="http://www.w3.org/1999/xlink" viewBox="0 0 200 200"><defs><style>.cls-1,.cls-3{fill:none;}.cls-2{isolation:isolate;}.cls-3{stroke:#00adf0;stroke-linecap:round;stroke-linejoin:round;stroke-width:6.27px;}.cls-4{clip-path:url(#clip-path);}.cls-5{opacity:0.5;mix-blend-mode:overlay;}.cls-6{fill:#00adf0;fill-rule:evenodd;}</style><clipPath id="clip-path"><rect class="cls-1" x="-219.5" y="571.5" width="1927" height="1227"/></clipPath></defs><title>&amp;apos;</title><g class="cls-2"><g id="Capa_1" data-name="Capa 1"><path class="cls-3" d="M77.75,42h0a6.54,6.54,0,0,1,6.55-6.54l29.46,0"/><path class="cls-3" d="M77.63,145.12v8a10,10,0,0,0,10,10l26,0"/><path class="cls-3" d="M173.36,158.57l.13-114.5a6.35,6.35,0,0,0-4.13-6L126,21.93a6.35,6.35,0,0,0-8.57,5.94l-.16,144.25a6.35,6.35,0,0,0,8.24,6.06l43.38-13.56A6.34,6.34,0,0,0,173.36,158.57Z"/><rect class="cls-3" x="26.52" y="90.68" width="57.28" height="37.64" rx="6.16" transform="translate(0.12 -0.06) rotate(0.06)"/><path class="cls-3" d="M36.16,89.84l0-27a19.09,19.09,0,0,1,19.05-19h0a19.07,19.07,0,0,1,19,19.05v6.75"/><g class="cls-4"><g class="cls-5"><path class="cls-6" d="M819,440.31c134.38,104.74,272.44,47.54,404.3,21.68,308.3-60.45,315.51-680,470.79-815.71,89.59-126.61,381-211,271.46,21.3L1913-307.3c102.47,131.57,196.83,489.15,196,770.27-.67,239.09-132.77,404.87-263,502-185.12,135.8-409.4,191.7-633.18,186a1028.75,1028.75,0,0,1-338.31-65.52c-83.79-31.91-128.87-54.09-225-139.2s-165-227-297.49-229.19c-926.81-15.2-442-209.66-458.93-263.56-15.62-49.31-11.51-877,427.66-23.77C405.47,594.25,653.38,311.24,819,440.31Z"/></g></g></g></g></svg>