<svg id="Capa_1" data-name="Capa 1" xmlns="http://www.w3.org/2000/svg" viewBox="0 0 43.29 41.77"><defs><style>.cls-1{fill:none;stroke:#00aff2;stroke-linecap:round;stroke-linejoin:round;stroke-width:1.88px;}</style></defs><title>Pricing</title><path class="cls-1" d="M8.25,17.69,8.16,29.87H4.6A3.67,3.67,0,0,1,.94,26.21V21.34A3.67,3.67,0,0,1,4.6,17.69H8.25Z"/><path class="cls-1" d="M35,29.87l.09-12.18H38.7a3.66,3.66,0,0,1,3.65,3.65v4.87a3.67,3.67,0,0,1-3.65,3.66H35Z"/><path class="cls-1" d="M38.7,29.87h0a8.52,8.52,0,0,1-8.53,8.52H26.52"/><rect class="cls-1" x="16.77" y="35.35" width="9.74" height="5.48" rx="2.74"/><path class="cls-1" d="M38.7,17.73h0A16.84,16.84,0,0,0,21.91.94h-.53A16.83,16.83,0,0,0,4.6,17.73h0"/></svg>