<svg id="Capa_1" data-name="Capa 1" xmlns="http://www.w3.org/2000/svg" viewBox="0 0 111.16 90.56"><defs><style>.cls-1{fill:none;stroke:#00adf0;stroke-linecap:round;stroke-linejoin:round;stroke-width:3.45px;}.cls-2{fill:#ffbd02;stroke:#fff;stroke-miterlimit:10;stroke-width:2.74px;}.cls-3{fill:#fff;}</style></defs><title>Pricing</title><path class="cls-1" d="M29.89,13.81h0a3.58,3.58,0,0,1,3.6-3.59h16.2"/><path class="cls-1" d="M29.83,70.5v4.4a5.49,5.49,0,0,0,5.49,5.5l14.3,0"/><path class="cls-1" d="M82.45,77.89,82.52,15a3.48,3.48,0,0,0-2.26-3.28L56.43,2.77A3.49,3.49,0,0,0,51.72,6l-.09,79.3a3.49,3.49,0,0,0,4.53,3.33L80,81.22A3.49,3.49,0,0,0,82.45,77.89Z"/><rect class="cls-1" x="1.73" y="40.57" width="31.49" height="20.69" rx="3.38" transform="translate(0.06 -0.02) rotate(0.06)"/><path class="cls-1" d="M7,40.1V25.26A10.5,10.5,0,0,1,17.52,14.81h0A10.49,10.49,0,0,1,28,25.28V29"/><path class="cls-2" d="M90.5,40a19.3,19.3,0,1,1,19.29-19.3A19.32,19.32,0,0,1,90.5,40Z"/><path class="cls-3" d="M90.41,19.37a1.32,1.32,0,1,1-1.31,1.32,1.32,1.32,0,0,1,1.31-1.32"/><path class="cls-3" d="M91.46,28.39H84.4a1.79,1.79,0,0,1-1.78-1.79V19.27a1.79,1.79,0,0,1,1.78-1.79H97.27a1.79,1.79,0,0,1,1.79,1.79V21a.93.93,0,0,0,.73.93.9.9,0,0,0,1.06-.88V19.27a3.57,3.57,0,0,0-3.58-3.57H96.2V12.54a5.37,5.37,0,0,0-10.73,0V15.7H84.4a3.57,3.57,0,0,0-3.57,3.57V26.6a3.57,3.57,0,0,0,3.57,3.57h7a.92.92,0,0,0,.92-.72.89.89,0,0,0-.88-1.06m-4.2-15.85a3.58,3.58,0,0,1,7.15,0V15.7H87.26Z"/><path class="cls-3" d="M103.07,21.72a.9.9,0,0,0-1,.36l-4.39,6.13a.47.47,0,0,1-.35.17.48.48,0,0,1-.38-.13L94.13,25.5A.93.93,0,0,0,93,25.34a.91.91,0,0,0-.16,1.41l2.85,2.78h0a2.14,2.14,0,0,0,.72.47,2.46,2.46,0,0,0,1,.16,2.34,2.34,0,0,0,1.64-.86l0,0,4.42-6.17a.9.9,0,0,0-.47-1.38"/><path class="cls-3" d="M89.68,21.68l-.54,2.38a.4.4,0,0,0,.39.49h1.75a.4.4,0,0,0,.38-.5l-.56-2.26Z"/></svg>