<svg id="Capa_1" data-name="Capa 1" xmlns="http://www.w3.org/2000/svg" viewBox="0 0 40.6 61.56"><defs><style>.cls-1,.cls-3{fill:none;stroke-linecap:round;stroke-linejoin:round;}.cls-1{stroke:#00aff2;stroke-width:1.94px;}.cls-2{fill:#ffbd02;stroke-miterlimit:10;stroke-width:0.66px;}.cls-2,.cls-3{stroke:#fff;}.cls-3{stroke-width:1.33px;}</style></defs><title>Pricing</title><path class="cls-1" d="M17.56,11.9H29.4a4.46,4.46,0,0,1,3.24,1.73,4.88,4.88,0,0,1,1.5,3.23V55.63a5.66,5.66,0,0,1-1.29,3.23,4,4,0,0,1-3,1.73H5.28a4.05,4.05,0,0,1-3-1.73A5.66,5.66,0,0,1,1,55.63V16.86a4.85,4.85,0,0,1,1.51-3.23A4.42,4.42,0,0,1,5.71,11.9Z"/><path class="cls-1" d="M17.56,52a1.08,1.08,0,1,0,0,2.15h.21a1.08,1.08,0,1,0,0-2.15Z"/><path class="cls-1" d="M13.9,27.84a5,5,0,0,1,3.66-1.5,5.2,5.2,0,0,1,3.66,1.5"/><path class="cls-1" d="M10,24.18a12.49,12.49,0,0,1,3.45-2.37A12.57,12.57,0,0,1,17.56,21a9.41,9.41,0,0,1,4.09.86,9.15,9.15,0,0,1,3.45,2.37"/><rect class="cls-2" x="22.71" y="0.33" width="17.56" height="20.06" rx="1.76"/><line class="cls-3" x1="26.87" y1="5.59" x2="36.14" y2="5.59"/><line class="cls-3" x1="26.87" y1="10.66" x2="36.14" y2="10.66"/><line class="cls-3" x1="26.87" y1="15.26" x2="36.14" y2="15.26"/></svg>