<svg id="Capa_1" data-name="Capa 1" xmlns="http://www.w3.org/2000/svg" viewBox="0 0 46.24 46.24"><defs><style>.cls-1{fill:none;stroke:#00aff2;stroke-linecap:round;stroke-linejoin:round;stroke-width:2.05px;}</style></defs><title>Pricing</title><path class="cls-1" d="M23.05,44.3a1.18,1.18,0,0,1-1.44.88l-7.28-1.77A1.19,1.19,0,0,1,13.45,42L14,39.71a18.43,18.43,0,0,1-3.93-2.87l-2,1.21a1.2,1.2,0,0,1-1.65-.4l-3.89-6.4A1.21,1.21,0,0,1,3,29.6l2-1.2a18.69,18.69,0,0,1-.74-4.81L1.94,23a1.18,1.18,0,0,1-.88-1.44l1.77-7.28a1.19,1.19,0,0,1,1.44-.88L6.52,14a19.36,19.36,0,0,1,2.87-3.92l-1.19-2a1.15,1.15,0,0,1-.14-.9,1.17,1.17,0,0,1,.54-.74L15,2.56a1.18,1.18,0,0,1,1.64.4l1.2,2a18.56,18.56,0,0,1,4.8-.75l.55-2.23a1.18,1.18,0,0,1,1.44-.88l7.28,1.77a1.19,1.19,0,0,1,.88,1.44l-.54,2.24a19,19,0,0,1,3.93,2.87l2-1.19a1.19,1.19,0,0,1,1.65.4L43.68,15a1.16,1.16,0,0,1,.14.91,1.22,1.22,0,0,1-.54.74l-2,1.2a18.56,18.56,0,0,1,.75,4.8l2.25.55a1.19,1.19,0,0,1,.87,1.45L43.42,31.9a1.2,1.2,0,0,1-.54.74,1.16,1.16,0,0,1-.91.14l-2.25-.54a18.37,18.37,0,0,1-2.87,3.92l1.21,2a1.21,1.21,0,0,1-.4,1.65l-6.4,3.89a1.16,1.16,0,0,1-.91.14,1.22,1.22,0,0,1-.74-.54l-1.2-2a18.7,18.7,0,0,1-4.81.75Z"/><path class="cls-1" d="M13.84,20.8a9.78,9.78,0,0,1,11.63-7.46,9.77,9.77,0,0,1,6.9,12,9.78,9.78,0,0,1-11.63,7.47A9.78,9.78,0,0,1,13.84,20.8Z"/></svg>