<svg id="Capa_1" data-name="Capa 1" xmlns="http://www.w3.org/2000/svg" viewBox="0 0 65.03 37.56"><defs><style>.cls-1{fill:#00aff2;}</style></defs><title>Pricing</title><path class="cls-1" d="M60.83,2.44a1.94,1.94,0,0,1,1.93,1.93V28H55.3a3.94,3.94,0,0,0-3.87,4.65L51.68,34a1.13,1.13,0,0,1-.24.92,1.16,1.16,0,0,1-.87.42,1.05,1.05,0,0,1-.82-.4,1.25,1.25,0,0,1-.28-1l.22-1.23A3.94,3.94,0,0,0,45.82,28H37.24v-3.7a8.89,8.89,0,0,0,2.84-1.6,9,9,0,0,0,0-13.84,8.89,8.89,0,0,0-2.84-1.6V2.44H60.83m0-2.27H35V9a6.73,6.73,0,0,1,0,13.4v7.8H45.82a1.68,1.68,0,0,1,1.28.6,1.65,1.65,0,0,1,.35,1.36l-.22,1.23A3.53,3.53,0,0,0,48,36.36a3.31,3.31,0,0,0,2.56,1.2h0a3.4,3.4,0,0,0,3.3-4l-.25-1.34A1.62,1.62,0,0,1,54,30.84a1.66,1.66,0,0,1,1.27-.6H65V4.37a4.2,4.2,0,0,0-4.2-4.2Z"/><path class="cls-1" d="M0,4.76A4.76,4.76,0,0,1,4.76,0H29.51a.56.56,0,0,1,.56.56v10a1.65,1.65,0,0,0,2,1.63h.1a3.41,3.41,0,0,1,2.8,6,3.42,3.42,0,0,1-2.8.74l-.1,0a1.65,1.65,0,0,0-2,1.63v9a.56.56,0,0,1-.56.56H23.35a.55.55,0,0,1-.52-.38,6.74,6.74,0,0,0-12.69,0,.55.55,0,0,1-.52.38H.56A.56.56,0,0,1,0,29.51Z"/></svg>