<svg id="Capa_1" data-name="Capa 1" xmlns="http://www.w3.org/2000/svg" viewBox="0 0 99.1 72.73"><defs><style>.cls-1{fill:none;stroke:#00adf0;stroke-linecap:round;stroke-linejoin:round;stroke-width:2.57px;}.cls-2{fill:#ffbd02;stroke:#fff;stroke-miterlimit:10;stroke-width:2.74px;}.cls-3{fill:#fff;}</style></defs><title>Pricing</title><path class="cls-1" d="M15.35,67.58S1.29,57.57,1.29,39.94,15.35,11.38,15.35,11.38"/><path class="cls-1" d="M55.44,11.38S69.5,21.38,69.5,39,55.44,67.58,55.44,67.58"/><path class="cls-1" d="M38.08,7.05V23a9.52,9.52,0,0,1-1.41,5l-3.82,6.2a6.09,6.09,0,0,0-.9,3.46L33.32,66.7a4.49,4.49,0,0,1-4.48,4.7h0a4.49,4.49,0,0,1-4.48-4.7l1.37-29.05a6,6,0,0,0-.9-3.46L21,28a9.52,9.52,0,0,1-1.41-5v-16"/><path class="cls-1" d="M51,35.42a32.74,32.74,0,0,0-.88,8.48l.67,22.84a4.49,4.49,0,0,1-4.49,4.7h0a4.49,4.49,0,0,1-4.48-4.7L43.58,9.4A1.78,1.78,0,0,1,47,8.64L52.7,19.91a6.07,6.07,0,0,1,.88,4.83Z"/><line class="cls-1" x1="25.4" y1="7.09" x2="25.4" y2="25.91"/><line class="cls-1" x1="31.61" y1="7.09" x2="31.61" y2="25.91"/><path class="cls-2" d="M78.44,40a19.3,19.3,0,1,1,19.29-19.3A19.32,19.32,0,0,1,78.44,40Z"/><path class="cls-3" d="M78.35,19.37A1.32,1.32,0,1,1,77,20.69a1.31,1.31,0,0,1,1.31-1.32"/><path class="cls-3" d="M79.41,28.39H72.35a1.79,1.79,0,0,1-1.79-1.79V19.27a1.79,1.79,0,0,1,1.79-1.79H85.21A1.79,1.79,0,0,1,87,19.27V21a.94.94,0,0,0,.73.93.89.89,0,0,0,1.06-.88V19.27a3.57,3.57,0,0,0-3.58-3.57H84.14V12.54a5.36,5.36,0,0,0-10.72,0V15.7H72.35a3.57,3.57,0,0,0-3.58,3.57V26.6a3.57,3.57,0,0,0,3.58,3.57h7a.91.91,0,0,0,.92-.72.89.89,0,0,0-.87-1.06M75.2,12.54a3.58,3.58,0,0,1,7.15,0V15.7H75.2Z"/><path class="cls-3" d="M91,21.72a.92.92,0,0,0-1,.36l-4.39,6.13a.47.47,0,0,1-.35.17.48.48,0,0,1-.38-.13L82.07,25.5A.93.93,0,0,0,81,25.34a.91.91,0,0,0-.16,1.41l2.86,2.78h0a2.14,2.14,0,0,0,.72.47,2.49,2.49,0,0,0,1,.16A2.34,2.34,0,0,0,87,29.31l0,0,4.42-6.17A.9.9,0,0,0,91,21.72"/><path class="cls-3" d="M77.62,21.68l-.54,2.38a.4.4,0,0,0,.39.49h1.75a.41.41,0,0,0,.39-.5L79,21.79Z"/></svg>