<svg id="Capa_1" data-name="Capa 1" xmlns="http://www.w3.org/2000/svg" viewBox="0 0 71.63 62.21"><defs><style>.cls-1{fill:none;stroke:#00aff2;stroke-linecap:round;stroke-linejoin:round;stroke-width:2.05px;}.cls-2{fill:#ffbd02;stroke:#fff;stroke-miterlimit:10;stroke-width:1.08px;}.cls-3{fill:#fff;}</style></defs><title>Pricing</title><path class="cls-1" d="M11.53,61.18V35.41a.27.27,0,0,0-.47-.19l-9.2,10v16Z"/><path class="cls-1" d="M29.6,61.18V36a1.31,1.31,0,0,0-1.31-1.31H21.14a1.19,1.19,0,0,0-1.2,1.2V61.18Z"/><path class="cls-1" d="M48.09,61.18V24.25a1.72,1.72,0,0,0-1.73-1.73h-6.2a1.72,1.72,0,0,0-1.73,1.73V61.18Z"/><path class="cls-1" d="M62.23,12.85l-4.84,4.62a2.86,2.86,0,0,0-.89,2.08V61.18h9.67V11.55"/><path class="cls-1" d="M1,36.81l7-7.4a1.88,1.88,0,0,1,1.37-.59H25.79a1.89,1.89,0,0,0,1.43-.65L36.6,17.29A1.88,1.88,0,0,1,38,16.63H48.57a1.88,1.88,0,0,0,1.34-.55L54,12.28"/><path class="cls-2" d="M71.09,10.3a9.76,9.76,0,1,0-9.76,9.76A9.76,9.76,0,0,0,71.09,10.3Z"/><path class="cls-3" d="M61.88,14.63v1.29h-1.1V14.63a3.08,3.08,0,0,1-3-2.38l1.88-.43A1.61,1.61,0,0,0,61.43,13a1.75,1.75,0,0,0,1-.26.81.81,0,0,0,.35-.65.69.69,0,0,0-.31-.59,3.73,3.73,0,0,0-1.21-.39,4.56,4.56,0,0,1-2.5-1.08,2.38,2.38,0,0,1-.56-1.59A2.53,2.53,0,0,1,59,6.65a2.91,2.91,0,0,1,1.83-.9V4.67h1.1V5.74a3,3,0,0,1,2.76,2l-1.72.57a1.42,1.42,0,0,0-1.49-1c-.8,0-1.2.26-1.2.77a.7.7,0,0,0,.23.53,2.23,2.23,0,0,0,1,.38,9.71,9.71,0,0,1,1.94.54,2.43,2.43,0,0,1,1,.88,2.35,2.35,0,0,1,.42,1.36,2.74,2.74,0,0,1-.75,1.88,3.28,3.28,0,0,1-2.25,1"/></svg>