<svg id="Capa_1" data-name="Capa 1" xmlns="http://www.w3.org/2000/svg" viewBox="0 0 104.04 73.28"><defs><style>.cls-1{fill:none;stroke:#00adf0;stroke-linecap:round;stroke-linejoin:round;stroke-width:2.28px;}.cls-2{fill:#ffbd02;stroke:#fff;stroke-miterlimit:10;stroke-width:2.74px;}.cls-3{fill:#fff;}</style></defs><title>Pricing</title><path class="cls-1" d="M45.31,19.05H66.49a6.29,6.29,0,0,1,6.27,6.27V65.87a6.29,6.29,0,0,1-6.27,6.27H7.42a6.29,6.29,0,0,1-6.28-6.27V25.32a6.29,6.29,0,0,1,6.28-6.27H31.29"/><rect class="cls-1" x="10.4" y="32.49" width="28.4" height="28.4" rx="2.24"/><line class="cls-1" x1="45.9" y1="35.88" x2="65.97" y2="35.88"/><line class="cls-1" x1="45.9" y1="42.06" x2="65.97" y2="42.06"/><line class="cls-1" x1="45.9" y1="49.77" x2="65.97" y2="49.77"/><line class="cls-1" x1="45.9" y1="57.49" x2="65.97" y2="57.49"/><rect class="cls-1" x="32.01" y="1.14" width="12.35" height="21.61" rx="2.52"/><path class="cls-2" d="M83.12,41.55a19.29,19.29,0,1,1,19.29-19.29A19.31,19.31,0,0,1,83.12,41.55Z"/><path class="cls-3" d="M83,21a1.31,1.31,0,1,1-1.31,1.31A1.32,1.32,0,0,1,83,21"/><path class="cls-3" d="M84.09,30H77a1.79,1.79,0,0,1-1.79-1.79V20.87A1.79,1.79,0,0,1,77,19.08H89.9a1.79,1.79,0,0,1,1.78,1.79v1.74a.93.93,0,0,0,.73.92.89.89,0,0,0,1.06-.88V20.87a3.57,3.57,0,0,0-3.57-3.58H88.82V14.14a5.36,5.36,0,0,0-10.72,0v3.15H77a3.58,3.58,0,0,0-3.58,3.58v7.32A3.58,3.58,0,0,0,77,31.77h7A.94.94,0,0,0,85,31,.89.89,0,0,0,84.09,30m-4.2-15.84a3.57,3.57,0,0,1,7.14,0v3.15H79.89Z"/><path class="cls-3" d="M95.7,23.31a.93.93,0,0,0-1,.36L90.31,29.8A.57.57,0,0,1,90,30a.46.46,0,0,1-.38-.14L86.75,27.1a.91.91,0,0,0-1.12-.16.89.89,0,0,0-.15,1.4l2.85,2.79h0a2,2,0,0,0,.71.47,2.33,2.33,0,0,0,1,.15,2.29,2.29,0,0,0,1.64-.85l0,0,4.42-6.18a.9.9,0,0,0-.46-1.38"/><path class="cls-3" d="M82.3,23.28l-.54,2.38a.41.41,0,0,0,.39.49H83.9a.41.41,0,0,0,.39-.5l-.57-2.27Z"/></svg>