<svg id="Capa_1" data-name="Capa 1" xmlns="http://www.w3.org/2000/svg" viewBox="0 0 100.77 99.44"><defs><style>.cls-1{fill:none;stroke:#00adf0;stroke-linecap:round;stroke-linejoin:round;stroke-width:3.45px;}.cls-2{fill:#ffbd02;stroke:#fff;stroke-miterlimit:10;stroke-width:2.74px;}.cls-3{fill:#fff;}</style></defs><title>Pricing</title><path class="cls-1" d="M71.24,25.53A40.31,40.31,0,0,1,83.34,54.3V82.46"/><path class="cls-1" d="M24.46,18a40.09,40.09,0,0,1,17.68-4.09h.79a40,40,0,0,1,20.24,5.47"/><path class="cls-1" d="M1.72,82.46V54.3A40.39,40.39,0,0,1,15.88,23.64"/><path class="cls-1" d="M66.24,43.76a25.23,25.23,0,0,1,1.93,9.69V82.2"/><path class="cls-1" d="M25.54,34.4a25.28,25.28,0,0,1,16.74-6.34h.5a25.39,25.39,0,0,1,19.48,9.15"/><path class="cls-1" d="M16.89,83.76V53.45A25.15,25.15,0,0,1,19.74,41.8"/><path class="cls-1" d="M33.54,82.6V56a8.94,8.94,0,0,1,8.91-8.91h.17A8.94,8.94,0,0,1,51.53,56V82.6"/><path class="cls-2" d="M80.11,40A19.3,19.3,0,1,1,99.4,20.66,19.32,19.32,0,0,1,80.11,40Z"/><path class="cls-3" d="M80,19.37a1.32,1.32,0,1,1-1.31,1.32A1.32,1.32,0,0,1,80,19.37"/><path class="cls-3" d="M81.08,28.39H74a1.79,1.79,0,0,1-1.79-1.79V19.27A1.79,1.79,0,0,1,74,17.48H86.89a1.79,1.79,0,0,1,1.78,1.79V21a.94.94,0,0,0,.73.93.89.89,0,0,0,1.06-.88V19.27a3.57,3.57,0,0,0-3.57-3.57H85.81V12.54a5.36,5.36,0,0,0-10.72,0V15.7H74a3.57,3.57,0,0,0-3.58,3.57V26.6A3.57,3.57,0,0,0,74,30.17h7a.93.93,0,0,0,.93-.72.89.89,0,0,0-.88-1.06m-4.2-15.85a3.58,3.58,0,0,1,7.15,0V15.7H76.88Z"/><path class="cls-3" d="M92.69,21.72a.9.9,0,0,0-1,.36L87.3,28.21a.49.49,0,0,1-.36.17.48.48,0,0,1-.38-.13L83.74,25.5a.91.91,0,0,0-1.11-.16.89.89,0,0,0-.16,1.41l2.85,2.78h0A2,2,0,0,0,86,30a2.49,2.49,0,0,0,1,.16,2.34,2.34,0,0,0,1.64-.86l0,0,4.42-6.17a.89.89,0,0,0-.46-1.38"/><path class="cls-3" d="M79.29,21.68l-.54,2.38a.41.41,0,0,0,.39.49h1.75a.41.41,0,0,0,.39-.5l-.57-2.26Z"/></svg>