<svg xmlns="http://www.w3.org/2000/svg" viewBox="0 0 66.26 66.26"><defs><style>.cls-1{fill:#fff;stroke-miterlimit:10;stroke-width:0.29px;}.cls-1,.cls-2{stroke:#fff;}.cls-2{fill:none;stroke-linecap:round;stroke-linejoin:round;stroke-width:2px;}</style></defs><title>&amp;apos;</title><g id="Capa_1" data-name="Capa 1"><path class="cls-1" d="M33.67,41.3a.55.55,0,0,1-.43-.18.57.57,0,0,1-.17-.42V39.24A7.7,7.7,0,0,1,31,38.87a6.06,6.06,0,0,1-1.57-.78.68.68,0,0,1-.3-.44.79.79,0,0,1,.06-.48.57.57,0,0,1,.33-.3.65.65,0,0,1,.54.12,6.09,6.09,0,0,0,1.4.69,6,6,0,0,0,2,.3,3.55,3.55,0,0,0,2.22-.57,1.85,1.85,0,0,0,.71-1.52,1.56,1.56,0,0,0-.51-1.21A3.86,3.86,0,0,0,34.19,34l-1.74-.37q-3.14-.66-3.13-3.23a3.32,3.32,0,0,1,1.77-3,4.77,4.77,0,0,1,2-.56V25.33a.57.57,0,0,1,.17-.42.55.55,0,0,1,.43-.18.6.6,0,0,1,.59.6v1.48a6.32,6.32,0,0,1,1.63.39,4.64,4.64,0,0,1,1.44.88.62.62,0,0,1,.24.57.6.6,0,0,1-.31.48.63.63,0,0,1-.68-.1,4.39,4.39,0,0,0-1.3-.73,5,5,0,0,0-1.68-.25,3.24,3.24,0,0,0-2.09.63,2,2,0,0,0-.77,1.66,1.74,1.74,0,0,0,.48,1.28,3.27,3.27,0,0,0,1.59.71l1.77.38a5.24,5.24,0,0,1,2.51,1.12,2.61,2.61,0,0,1,.8,2,3,3,0,0,1-1,2.33,4.58,4.58,0,0,1-2.62,1.07V40.7a.58.58,0,0,1-.59.6Z"/><rect class="cls-2" x="9.97" y="16.96" width="46.32" height="32.34" rx="4.72"/></g></svg>