<svg xmlns="http://www.w3.org/2000/svg" viewBox="0 0 66.26 66.26"><defs><style>.cls-1{fill:none;stroke:#fff;stroke-linecap:round;stroke-linejoin:round;stroke-width:2px;}</style></defs><title>&amp;apos;</title><g id="Capa_1" data-name="Capa 1"><path class="cls-1" d="M16.37,29.13l-.11,15.24H11.79A4.59,4.59,0,0,1,7.22,39.8V33.7a4.59,4.59,0,0,1,4.57-4.57h4.58Z"/><path class="cls-1" d="M49.89,44.37,50,29.13h4.46A4.59,4.59,0,0,1,59,33.7v6.1a4.59,4.59,0,0,1-4.58,4.57H49.89Z"/><path class="cls-1" d="M54.46,44.37h0A10.67,10.67,0,0,1,43.8,55H39.22"/><rect class="cls-1" x="27.03" y="51.23" width="12.19" height="6.86" rx="3.43"/><path class="cls-1" d="M54.46,29.17h0a21.06,21.06,0,0,0-21-21h-.67a21.06,21.06,0,0,0-21,21h0"/></g></svg>