<svg xmlns="http://www.w3.org/2000/svg" viewBox="0 0 66.26 66.26"><defs><style>.cls-1{fill:none;stroke:#fff;stroke-linecap:round;stroke-linejoin:round;stroke-width:2px;}</style></defs><title>&amp;apos;</title><g id="Capa_1" data-name="Capa 1"><path class="cls-1" d="M46.78,18.33A19.18,19.18,0,0,1,52.53,32V45.39"/><path class="cls-1" d="M24.54,14.74a19.1,19.1,0,0,1,8.4-1.94h.38a19.07,19.07,0,0,1,9.62,2.59"/><path class="cls-1" d="M13.73,45.39V32a19.2,19.2,0,0,1,6.73-14.58"/><path class="cls-1" d="M44.4,27a12,12,0,0,1,.92,4.6V45.27"/><path class="cls-1" d="M25.05,22.55a12,12,0,0,1,8-3h.24a12.07,12.07,0,0,1,9.26,4.35"/><path class="cls-1" d="M20.94,46V31.6a11.92,11.92,0,0,1,1.36-5.54"/><path class="cls-1" d="M28.85,45.46V32.8a4.26,4.26,0,0,1,4.24-4.24h.08a4.26,4.26,0,0,1,4.24,4.24V45.46"/></g></svg>