<?xml version="1.0" encoding="utf-8"?>
<!-- Generator: Adobe Illustrator 25.2.0, SVG Export Plug-In . SVG Version: 6.00 Build 0)  -->
<svg version="1.1" xmlns="http://www.w3.org/2000/svg" xmlns:xlink="http://www.w3.org/1999/xlink" x="0px" y="0px"
	 viewBox="0 0 253 198" style="enable-background:new 0 0 253 198;" xml:space="preserve">
<style type="text/css">
	.st0{fill:#FFBB00;}
</style>
<g id="Capa_1">
</g>
<g id="Capa_2">
</g>
<g id="Capa_4">
	<g>
		<path class="st0" d="M108.52,98.41c0,0,51.79,21.85,130.24,90.46l0.21-48.18c0,0-42.46-34.77-59.11-41.96
			c16.71-7.03,59.49-41.42,59.49-41.42l0.21-48.18C160.5,77.03,108.52,98.41,108.52,98.41"/>
		<path class="st0" d="M13.44,98.41c0,0,51.79,21.85,130.24,90.46l0.21-48.18c0,0-42.46-34.77-59.11-41.96
			c16.71-7.03,59.49-41.42,59.49-41.42l0.21-48.18C65.43,77.03,13.44,98.41,13.44,98.41"/>
	</g>
</g>
<g id="Capa_7">
</g>
</svg>
