<?xml version="1.0" encoding="utf-8"?>
<!-- Generator: Adobe Illustrator 24.0.2, SVG Export Plug-In . SVG Version: 6.00 Build 0)  -->
<svg version="1.1" id="Capa_1" xmlns="http://www.w3.org/2000/svg" xmlns:xlink="http://www.w3.org/1999/xlink" x="0px" y="0px"
	 viewBox="0 0 146 244" style="enable-background:new 0 0 146 244;" xml:space="preserve">
<style type="text/css">
	.st0{fill:none;stroke:#4B4B4B;stroke-width:7.0936;stroke-miterlimit:10;}
</style>
<g>
	<path class="st0" d="M103.09,104.42v99.96c0,8.62-6.99,15.62-15.62,15.62c-8.62,0-15.62-6.99-15.62-15.62
		c0,8.62-6.99,15.62-15.62,15.62c-8.62,0-15.62-6.99-15.62-15.62v-99.96"/>
	<line class="st0" x1="71.86" y1="204.38" x2="71.86" y2="158.5"/>
	<path class="st0" d="M98.7,71.63c12.67,0,22.94,10.27,22.94,22.94v38.55c0,10.25-8.3,18.56-18.54,18.56v-48.81"/>
	<path class="st0" d="M40.62,151.67L40.62,151.67c-10.24,0-18.54-8.3-18.54-18.54V94.56c0-12.64,10.27-22.93,22.94-22.93"/>
	<path class="st0" d="M45.99,47.63c0,14.29,11.59,25.87,25.87,25.87s25.86-11.59,25.86-25.87c0-14.27-11.57-25.86-25.86-25.86
		S45.99,33.36,45.99,47.63z"/>
</g>
<g>
</g>
<g>
</g>
<g>
</g>
<g>
</g>
<g>
</g>
<g>
</g>
<g>
</g>
<g>
</g>
<g>
</g>
<g>
</g>
<g>
</g>
<g>
</g>
<g>
</g>
<g>
</g>
<g>
</g>
</svg>
