<svg xmlns="http://www.w3.org/2000/svg" viewBox="0 0 105.04 111.54"><defs><style>.cls-1{fill:#008cd8;}.cls-2{fill:#fff;}.cls-3{fill:none;stroke-linecap:round;}.cls-3,.cls-4{stroke:#fff;stroke-miterlimit:10;stroke-width:2px;}.cls-4{fill:#d4950e;}</style></defs><title>Plataforma princing</title><g id="Capa_1" data-name="Capa 1"><rect class="cls-1" x="13.12" y="15.4" width="86.1" height="87.14" rx="10.02"/><path class="cls-2" d="M94.76,20.09a1.36,1.36,0,1,1-1.35,1.35,1.36,1.36,0,0,1,1.35-1.35"/><path class="cls-2" d="M94,22.47l-.56,2.46a.42.42,0,0,0,.4.51h1.81a.42.42,0,0,0,.4-.52l-.59-2.34Z"/><path class="cls-3" d="M33.23,91.91V66.72a.27.27,0,0,0-.46-.18l-9,9.76V91.91Z"/><path class="cls-3" d="M50.89,91.91V67.32A1.28,1.28,0,0,0,49.61,66h-7a1.17,1.17,0,0,0-1.17,1.17v24.7Z"/><path class="cls-3" d="M69,91.91V55.82a1.69,1.69,0,0,0-1.69-1.69H61.21a1.69,1.69,0,0,0-1.69,1.69V91.91Z"/><path class="cls-3" d="M82.78,44.68l-4.73,4.51a2.8,2.8,0,0,0-.87,2V91.91h9.44V43.41"/><path class="cls-3" d="M23,68.09l6.84-7.23a1.89,1.89,0,0,1,1.34-.57h16a1.87,1.87,0,0,0,1.4-.64L57.73,49a1.83,1.83,0,0,1,1.4-.64h10.3a1.85,1.85,0,0,0,1.3-.54l4-3.72"/><path class="cls-4" d="M98.12,26.61A18.07,18.07,0,1,0,80.05,44.68,18.07,18.07,0,0,0,98.12,26.61Z"/><path class="cls-2" d="M81,31.06v1.7H79.57v-1.7q-3.27-.35-4-3.15l2.49-.57a2.11,2.11,0,0,0,2.33,1.6,2.25,2.25,0,0,0,1.37-.35,1,1,0,0,0,.46-.85.89.89,0,0,0-.41-.79,5,5,0,0,0-1.59-.51A6,6,0,0,1,76.94,25a3.17,3.17,0,0,1-.74-2.1,3.38,3.38,0,0,1,.94-2.41,3.8,3.8,0,0,1,2.43-1.18V17.89H81V19.3A3.91,3.91,0,0,1,84.66,22l-2.27.76a1.88,1.88,0,0,0-2-1.36c-1.06,0-1.6.34-1.6,1a.92.92,0,0,0,.3.7,3,3,0,0,0,1.35.49,13.83,13.83,0,0,1,2.57.72,3.26,3.26,0,0,1,1.37,1.17A3.07,3.07,0,0,1,85,27.27a3.65,3.65,0,0,1-1,2.49,4.39,4.39,0,0,1-3,1.3"/></g></svg>