<svg xmlns="http://www.w3.org/2000/svg" viewBox="0 0 105.04 111.54"><defs><style>.cls-1{fill:#008cd8;}.cls-2{fill:none;stroke-linecap:round;}.cls-2,.cls-3{stroke:#fff;stroke-miterlimit:10;stroke-width:2px;}.cls-3{fill:#d4950e;}</style></defs><title>Plataforma princing</title><g id="Capa_1" data-name="Capa 1"><rect class="cls-1" x="9.47" y="12.2" width="86.1" height="87.14" rx="10.02"/><path class="cls-2" d="M40.17,28.67H54v14a3.63,3.63,0,0,0,3.62,3.62H70.38V88a3.63,3.63,0,0,1-3.62,3.63H30.37A3.64,3.64,0,0,1,26.74,88V34.91a6.21,6.21,0,0,1,6.18-6.21Z"/><path class="cls-3" d="M54.75,41.4a4.16,4.16,0,0,0,4.16,4.15h11l.39-.89L55.68,28.88l-.93.36Z"/><path class="cls-2" d="M40.35,25.5a6.21,6.21,0,0,1,6.18-6.2l7.26,0H67.58V33.31a3.63,3.63,0,0,0,3.62,3.62H84V78.61a3.63,3.63,0,0,1-3.62,3.62H74.89"/><path class="cls-3" d="M67.58,33.31a3.63,3.63,0,0,0,3.62,3.62H84s0,0,0,0L67.59,19.28s0,0,0,0Z"/><line class="cls-2" x1="35.24" y1="56.85" x2="60.72" y2="56.85"/><line class="cls-2" x1="35.24" y1="65.9" x2="60.72" y2="65.9"/><line class="cls-2" x1="35.24" y1="76.58" x2="60.72" y2="76.58"/></g></svg>