<svg xmlns="http://www.w3.org/2000/svg" viewBox="0 0 105.04 111.54"><defs><style>.cls-1{fill:#008cd8;}.cls-2{fill:#d4950e;}.cls-2,.cls-3{stroke:#fff;stroke-miterlimit:10;stroke-width:2px;}.cls-3{fill:none;stroke-linecap:round;}</style></defs><title>Plataforma princing</title><g id="Capa_1" data-name="Capa 1"><rect class="cls-1" x="10.45" y="17.87" width="86.1" height="87.14" rx="10.02"/><path class="cls-2" d="M78.49,46.4a1.2,1.2,0,0,1-1.44.88l-7.26-1.77a1.2,1.2,0,0,1-.88-1.44l.55-2.25A18.62,18.62,0,0,1,65.55,39l-2,1.2a1.23,1.23,0,0,1-.9.14,1.2,1.2,0,0,1-.74-.54l-3.88-6.38a1.2,1.2,0,0,1,.4-1.64l2-1.2a19.05,19.05,0,0,1-.74-4.8l-2.24-.54a1.19,1.19,0,0,1-.88-1.44l1.76-7.26a1.21,1.21,0,0,1,1.45-.88l2.24.55a18.68,18.68,0,0,1,2.86-3.92l-1.19-2a1.15,1.15,0,0,1-.14-.9,1.17,1.17,0,0,1,.54-.74l6.38-3.88a1.2,1.2,0,0,1,1.64.4l1.19,2a18.55,18.55,0,0,1,4.79-.75l.55-2.23a1.18,1.18,0,0,1,1.44-.87L87.32,5a1.19,1.19,0,0,1,.88,1.44l-.54,2.23a18.63,18.63,0,0,1,3.92,2.87l2-1.2a1.2,1.2,0,0,1,1.64.4l3.89,6.38a1.23,1.23,0,0,1,.14.9,1.2,1.2,0,0,1-.54.74l-2,1.2a18.91,18.91,0,0,1,.74,4.79l2.24.54a1.2,1.2,0,0,1,.88,1.44L98.8,34a1.2,1.2,0,0,1-.54.74,1.25,1.25,0,0,1-.91.14l-2.24-.55a18.68,18.68,0,0,1-2.86,3.92l1.2,2a1.2,1.2,0,0,1-.4,1.64l-6.38,3.89a1.23,1.23,0,0,1-.9.14h0a1.23,1.23,0,0,1-.74-.54l-1.2-2a18.55,18.55,0,0,1-4.79.75Z"/><path class="cls-3" d="M69.31,23a9.52,9.52,0,1,1,18.47,4.49A9.52,9.52,0,1,1,69.31,23Z"/><path class="cls-3" d="M28.32,52.37a.69.69,0,0,1-.85.51l-4.24-1a.7.7,0,0,1-.52-.84L23,49.69A11.39,11.39,0,0,1,20.74,48l-1.15.7a.75.75,0,0,1-.53.08.67.67,0,0,1-.43-.32l-2.27-3.73a.69.69,0,0,1,.23-1l1.15-.7a11.19,11.19,0,0,1-.43-2.81L16,40a.7.7,0,0,1-.52-.84l1-4.25a.71.71,0,0,1,.85-.51l1.31.32a11.06,11.06,0,0,1,1.68-2.29l-.7-1.15a.66.66,0,0,1-.08-.53.68.68,0,0,1,.31-.43L23.62,28a.69.69,0,0,1,.95.23l.7,1.15A11.2,11.2,0,0,1,28.08,29l.31-1.3a.69.69,0,0,1,.85-.51l4.25,1A.7.7,0,0,1,34,29l-.32,1.31A11.11,11.11,0,0,1,36,32l1.15-.69a.7.7,0,0,1,1,.23l2.27,3.73a.66.66,0,0,1,.08.53.65.65,0,0,1-.31.43l-1.15.7a11.05,11.05,0,0,1,.44,2.8l1.31.32a.7.7,0,0,1,.51.85l-1,4.24a.7.7,0,0,1-.84.52L38,45.33a11,11,0,0,1-1.67,2.29l.7,1.15a.7.7,0,0,1-.23,1L33.11,52a.75.75,0,0,1-.53.08.71.71,0,0,1-.44-.32l-.7-1.15a10.61,10.61,0,0,1-2.8.43Z"/><path class="cls-3" d="M22.94,38.66a5.71,5.71,0,0,1,6.79-4.36,5.85,5.85,0,1,1-6.79,4.36Z"/><path class="cls-3" d="M66.62,100a.7.7,0,0,1-.85.51l-4.24-1a.7.7,0,0,1-.52-.85l.32-1.31A11.06,11.06,0,0,1,59,95.66l-1.15.71a.75.75,0,0,1-.53.08.7.7,0,0,1-.43-.32L54.66,92.4a.7.7,0,0,1,.23-1l1.16-.7a10.76,10.76,0,0,1-.44-2.81l-1.31-.32a.7.7,0,0,1-.52-.84l1-4.25a.7.7,0,0,1,.84-.51l1.31.32A10.8,10.8,0,0,1,58.65,80L58,78.89a.66.66,0,0,1-.08-.53.69.69,0,0,1,.31-.43l3.74-2.27a.7.7,0,0,1,1,.23l.7,1.15a10.62,10.62,0,0,1,2.8-.44l.32-1.3a.7.7,0,0,1,.84-.52l4.25,1a.69.69,0,0,1,.51.84L72,78a10.86,10.86,0,0,1,2.3,1.68l1.14-.7a.7.7,0,0,1,1,.24l2.27,3.73a.71.71,0,0,1,.09.53.73.73,0,0,1-.32.43l-1.15.7a10.62,10.62,0,0,1,.44,2.8l1.31.32a.7.7,0,0,1,.51.85l-1,4.24a.69.69,0,0,1-.31.43.66.66,0,0,1-.53.08L76.35,93a11.06,11.06,0,0,1-1.68,2.29l.7,1.15a.7.7,0,0,1-.23,1l-3.73,2.27a.68.68,0,0,1-1-.23l-.71-1.15a11,11,0,0,1-2.8.43Z"/><path class="cls-3" d="M61.24,86.31a5.57,5.57,0,1,1,4,7A5.7,5.7,0,0,1,61.24,86.31Z"/><path class="cls-3" d="M37.4,28a33.94,33.94,0,0,1,15-5.75"/><path class="cls-3" d="M48.64,88.6A33.76,33.76,0,0,1,22.86,56.69"/><path class="cls-3" d="M89.69,48.89a33.82,33.82,0,0,1-5.82,26.86"/></g></svg>