<svg xmlns="http://www.w3.org/2000/svg" viewBox="0 0 105.04 111.54"><defs><style>.cls-1{fill:#008cd8;}.cls-2,.cls-4{fill:none;stroke-linecap:round;}.cls-2,.cls-3,.cls-4{stroke:#fff;stroke-miterlimit:10;}.cls-2{stroke-width:1.56px;}.cls-3{fill:#d4950e;}.cls-3,.cls-4{stroke-width:2px;}</style></defs><title>Plataforma princing</title><g id="Capa_1" data-name="Capa 1"><path class="cls-1" d="M82.09,102.86H16a10.05,10.05,0,0,1-10-10V25.74a10.05,10.05,0,0,1,10-10H82.09a10.05,10.05,0,0,1,10,10v67.1A10.05,10.05,0,0,1,82.09,102.86Z"/><path class="cls-2" d="M48.08,71.93c-1,.36-1.62.55-1.62.55s-.63-.2-1.6-.62"/><path class="cls-2" d="M59.16,67.91s10.15,2.78,10.27,2.8c3.41.58,6.41,11.59,8.45,21.55H56"/><path class="cls-2" d="M33.7,68.05s-9.45,3-9.42,3.16C21.18,72.6,19,82.77,17.51,92.26H36.68"/><path class="cls-2" d="M42.74,60.89c-3.47-2.45-6.9-7.71-7.54-13.92"/><path class="cls-2" d="M46.35,29.28c-4.86,0-10.14,3.4-11.5,7-1.45,3.78-.84,10-.84,10l1.43,1.55a.14.14,0,0,0,.24-.07c.21-1.34,1.19-7,2.66-7.82l.11-.06a10.69,10.69,0,0,1,7.44-1c3.53.76,8.3,1.91,9,2.64,1,1,1.7,3.47,2,5a.56.56,0,0,0,1,.2l.94-1.36s.46-7.1-1.44-10.12C56.11,33,51.44,29.28,46.35,29.28Z"/><path class="cls-2" d="M54.49,65.78c-.57-1.1-1.24-3.25-1.47-7.39A21.55,21.55,0,0,0,58,47c0-.11,0-.23,0-.36l.89-1.28s.46-7.1-1.44-10.12c-1.35-2.17-6-5.93-11.11-5.93-4.86,0-10.14,3.4-11.5,7-1.45,3.78-.84,10-.84,10l1.34,1.45A20.89,20.89,0,0,0,40.74,59.1a17.23,17.23,0,0,1-2.23,6.7"/><polyline class="cls-2" points="44.86 72.02 46.46 72.48 47.89 72.07"/><polyline class="cls-2" points="49.01 92.26 47.78 77.45 49.03 73.86"/><polyline class="cls-2" points="43.88 73.84 45.14 77.45 43.84 92.26"/><polygon class="cls-2" points="33.46 68.13 36.55 64.16 45.69 70.85 43.07 74.98 33.46 68.13"/><polygon class="cls-2" points="59.46 68.13 56.37 64.16 47.23 70.85 49.85 74.98 59.46 68.13"/><path class="cls-2" d="M47.23,61.1A9,9,0,0,0,53,58.38"/><path class="cls-2" d="M40.76,59.12a10.62,10.62,0,0,0,2.42,1.29"/><path class="cls-2" d="M31.19,41.1c0-8.66,6.68-15.68,14.92-15.68S61,32.44,61,41.1"/><path class="cls-2" d="M31.71,48H30.23a2,2,0,0,1-2-2V43.23a2,2,0,0,1,2-2h1.48a.55.55,0,0,1,.54.55v5.73A.55.55,0,0,1,31.71,48Z"/><path class="cls-2" d="M60.73,48h1.48a2,2,0,0,0,2-2V43.23a2,2,0,0,0-2-2H60.73a.55.55,0,0,0-.54.55v5.73A.55.55,0,0,0,60.73,48Z"/><path class="cls-2" d="M62.32,48.67s1.49,13.64-14.5,13.64"/><path class="cls-2" d="M47.61,62.42a2.71,2.71,0,1,1-2.67-2.24A2.49,2.49,0,0,1,47.61,62.42Z"/><path class="cls-3" d="M74.93,46.55a1.2,1.2,0,0,1-1.44.88l-7.26-1.77a1.2,1.2,0,0,1-.88-1.44L65.9,42A18.31,18.31,0,0,1,62,39.1l-2,1.21a1.18,1.18,0,0,1-.9.13,1.15,1.15,0,0,1-.74-.53l-3.88-6.38a1.2,1.2,0,0,1,.4-1.64l2-1.2a19.05,19.05,0,0,1-.74-4.8l-2.24-.54A1.2,1.2,0,0,1,53,23.9l1.76-7.25a1.2,1.2,0,0,1,1.45-.88l2.24.55a18.68,18.68,0,0,1,2.86-3.92l-1.19-2a1.19,1.19,0,0,1,.4-1.64L66.9,4.92a1.18,1.18,0,0,1,1.64.4l1.19,2a18.55,18.55,0,0,1,4.79-.75l.55-2.23a1.2,1.2,0,0,1,1.44-.88l7.25,1.77a1.19,1.19,0,0,1,.88,1.44L84.1,8.86A18.68,18.68,0,0,1,88,11.72l2-1.19a1.2,1.2,0,0,1,1.64.4l3.89,6.38A1.19,1.19,0,0,1,95.1,19l-2,1.19a19.05,19.05,0,0,1,.74,4.8l2.24.54A1.19,1.19,0,0,1,97,26.92l-1.76,7.26a1.19,1.19,0,0,1-1.44.88l-2.25-.55a18.68,18.68,0,0,1-2.86,3.92l1.2,2a1.2,1.2,0,0,1-.4,1.64l-6.38,3.89a1.23,1.23,0,0,1-.9.14h0a1.23,1.23,0,0,1-.74-.54l-1.2-2a18.55,18.55,0,0,1-4.79.75Z"/><path class="cls-4" d="M65.75,23.12a9.52,9.52,0,1,1,18.47,4.49,9.52,9.52,0,1,1-18.47-4.49Z"/></g></svg>