<svg xmlns="http://www.w3.org/2000/svg" viewBox="0 0 105.04 111.54"><defs><style>.cls-1{fill:#008cd8;}.cls-2{fill:none;stroke-linecap:round;stroke-width:1.75px;}.cls-2,.cls-3{stroke:#fff;stroke-miterlimit:10;}.cls-3{fill:#d4950e;stroke-width:1.53px;}</style></defs><title>Plataforma princing</title><g id="Capa_1" data-name="Capa 1"><rect class="cls-1" x="9.21" y="12.58" width="86.1" height="87.14" rx="10.02"/><line class="cls-2" x1="78.05" y1="59.14" x2="78.05" y2="61.33"/><line class="cls-2" x1="78.05" y1="64.62" x2="78.05" y2="66.81"/><line class="cls-2" x1="18.51" y1="77.48" x2="88.36" y2="77.47"/><line class="cls-2" x1="53.33" y1="80.97" x2="54.98" y2="80.97"/><path class="cls-2" d="M32.16,27.49H22.27c-2.36,0-4.3,2.36-4.3,5.24V79.93c0,2.88,1.93,5.24,4.3,5.24H84.6c2.37,0,4.3-2.36,4.3-5.25V32.73c0-2.88-1.94-5.24-4.3-5.24H32.16Z"/><line class="cls-2" x1="78.14" y1="39.3" x2="88.29" y2="39.3"/><line class="cls-2" x1="18.53" y1="39.3" x2="30.63" y2="39.3"/><line class="cls-2" x1="22.76" y1="32.63" x2="28.14" y2="32.63"/><line class="cls-2" x1="78.04" y1="32.63" x2="83.42" y2="32.63"/><rect class="cls-2" x="21.57" y="44.32" width="63" height="28.74" rx="6"/><circle class="cls-3" cx="80.73" cy="28.45" r="22.68"/><path class="cls-2" d="M98,29.09a16.39,16.39,0,1,0-32.77,0H63.54a.76.76,0,0,0-.64,1.17l5.05,8a.77.77,0,0,0,1.29,0l5.09-8a.76.76,0,0,0-.66-1.17l-3,0a10.87,10.87,0,1,1,2.69,7.17"/></g></svg>