<svg xmlns="http://www.w3.org/2000/svg" viewBox="0 0 105.04 111.54"><defs><style>.cls-1{fill:#008cd8;}.cls-2,.cls-4{fill:none;}.cls-2,.cls-3{stroke:#fff;stroke-width:2px;}.cls-2{stroke-linecap:round;}.cls-2,.cls-3,.cls-4{stroke-miterlimit:10;}.cls-3{fill:#d4950e;}.cls-4{stroke:#008cd8;stroke-width:1.39px;}</style></defs><title>Plataforma princing</title><g id="Capa_1" data-name="Capa 1"><rect class="cls-1" x="9.47" y="14.9" width="86.1" height="87.14" rx="10.02"/><path class="cls-2" d="M75.18,48.65V85.72c0,5.36-4.72,9.74-10.5,9.74h-25c-5.78,0-10.5-4.38-10.5-9.74V30.32c0-5.36,4.72-9.75,10.5-9.75H60.8"/><line class="cls-2" x1="29.19" y1="30.42" x2="59.8" y2="30.42"/><line class="cls-2" x1="29.19" y1="82.98" x2="75.18" y2="82.98"/><path class="cls-3" d="M82.31,14.05H71.16l-5.87,0c-2.76,0-5,1.46-5,3.26v28c0,1,1.32,1.91,2.93,1.91H92.64c1.61,0,2.93-.86,2.93-1.91V17.64c0-2-2.46-3.59-5.5-3.59Z"/><line class="cls-3" x1="67.32" y1="25.34" x2="88.56" y2="25.34"/><line class="cls-3" x1="67.32" y1="35.2" x2="88.56" y2="35.2"/><ellipse class="cls-2" cx="51.58" cy="88.59" rx="3.09" ry="2.87"/><polyline class="cls-4" points="72.01 64.27 72.01 82.51 33.19 82.51 33.19 33.12 43.46 33.12"/></g></svg>