<svg id="Capa_1" data-name="Capa 1" xmlns="http://www.w3.org/2000/svg" viewBox="0 0 135.42 36.89"><defs><style>.cls-1,.cls-2{fill:none;}.cls-1{stroke:#00adf0;stroke-linecap:round;stroke-linejoin:round;stroke-width:1.47px;}.cls-2{stroke:#fff;stroke-miterlimit:10;}.cls-3{fill:#fff;}</style></defs><title>ICONOS_QR_icono qr</title><rect class="cls-1" x="0.74" y="4.8" width="46.45" height="31.36" rx="2.96"/><rect class="cls-1" x="7.75" y="10.63" width="14.39" height="20.34" rx="0.54"/><circle class="cls-1" cx="14.96" cy="17.31" r="2.82"/><path class="cls-1" d="M21.73,32A6.78,6.78,0,0,0,8.17,32" transform="translate(0 -0.99)"/><line class="cls-1" x1="29.05" y1="12.83" x2="41.35" y2="12.83"/><line class="cls-1" x1="29.05" y1="17.93" x2="41.35" y2="17.93"/><line class="cls-1" x1="29.05" y1="23.03" x2="39.87" y2="23.03"/><line class="cls-1" x1="29.05" y1="28.13" x2="36.94" y2="28.13"/><path class="cls-2" d="M100.09,10.73V3.6a2,2,0,0,1,2-2h7.27" transform="translate(0 -0.99)"/><path class="cls-2" d="M125.73,1.49h7.14a2,2,0,0,1,2,2V10.8" transform="translate(0 -0.99)"/><path class="cls-2" d="M134.91,27.1v7.14a2,2,0,0,1-2,2H125.6" transform="translate(0 -0.99)"/><path class="cls-2" d="M109.27,36.34h-7.14a2,2,0,0,1-2-2V27" transform="translate(0 -0.99)"/><rect class="cls-2" x="107.15" y="7.5" width="7.83" height="7.83"/><rect class="cls-2" x="107.15" y="20.25" width="7.83" height="7.83"/><rect class="cls-3" x="119.04" y="20.25" width="2.95" height="2.95"/><rect class="cls-3" x="121.99" y="22.93" width="2.95" height="2.95"/><rect class="cls-3" x="124.94" y="22.93" width="2.95" height="2.95"/><rect class="cls-3" x="124.94" y="25.88" width="2.95" height="2.95"/><rect class="cls-3" x="119.04" y="25.62" width="2.95" height="2.95"/><rect class="cls-2" x="119.85" y="7.5" width="7.83" height="7.83"/></svg>