<svg id="Layer_1" data-name="Layer 1" xmlns="http://www.w3.org/2000/svg" viewBox="0 0 551.14 561.86"><defs><style>.cls-1{fill:none;stroke:#000;stroke-miterlimit:10;}</style></defs><path class="cls-1" d="M448.64.42a36.54,36.54,0,0,1,6,5.09q62.58,63.42,85.16,149.62a314.62,314.62,0,0,1,10.67,90.42c-2,99.42-39.34,183-113.64,249.35-37.8,33.79-82.39,54.6-132.39,62.56-73.2,11.65-141.17-2.61-202.44-45-33.17-22.93-60.09-51.78-78.38-88.09A215.14,215.14,0,0,1,1.19,343c-3.68-48.85,7.37-94.18,33.64-135.56,23-36.28,53.61-63.82,94.52-78.73,73.78-26.88,155.14-3.56,201.58,57,46.72,60.9,35.26,150.16-24.72,198-25,20-54.14,27.35-85.64,23.73-37.26-4.28-66.64-22.27-85.66-54.9C110.14,310,124.53,252,165.65,226.82c35.28-21.59,85.44-11.52,107.2,25.5,18.84,32.07,5.19,75.61-28.36,89.3-20.82,8.49-40.12,4.49-57.08-10.1"/></svg>