<svg id="Capa_1" data-name="Capa 1" xmlns="http://www.w3.org/2000/svg" viewBox="0 0 1280 360.14"><defs><style>.cls-1{fill:#616161;}</style></defs><path class="cls-1" d="M946.67,341.33c-3.69-1.28-7.59-1.66-11.37-2.51-8.36-1.88-16.63-4-24.5-7.5s-15.19-8-20.52-15c-9.09-11.85-11.2-25.12-7.19-39.4a59.83,59.83,0,0,1,8.06-16.75c3.24-4.92,6.61-9.75,9.78-14.71A45.84,45.84,0,0,0,908.62,220c0-9.32-3.89-16.71-11.07-22.48-6.08-4.88-13.14-7.85-20.43-10.29A89.81,89.81,0,0,0,847.91,183a145.73,145.73,0,0,0-35.85,5.16c-17.57,4.59-34.33,11.46-51.11,18.24-14.63,5.9-29.2,11.93-43.81,17.88a8.48,8.48,0,0,0-3.76,2.63,16,16,0,0,1-7.93,5.27c-5.06,1.69-10.12,3.36-15.16,5.1-2.59.89-2.67,1.05-1.88,3.56q1.1,3.51,2.33,7c3.51,9.8-2.48,18.69-10.67,21.26-6.67,2.09-13.26,4.49-19.92,6.63-2.25.73-3.36,1.75-3.57,4.38a10.85,10.85,0,0,1-15.51,9.29,7.23,7.23,0,0,0-5.71-.11q-31.4,10.64-62.84,21.18l-1.58.53c-3.1,1-3.27,1-4.37-2.06-1-2.83-3-5.21-3.83-8.12a1.55,1.55,0,0,0-2.16-1c-.86.25-1.7.54-2.54.82l-22.75,7.61c-.95.32-1.89.66-2.86.91-4.7,1.18-8.51-.87-10-5.36s.29-8.87,4.9-10.5c8.58-3.06,17.23-5.91,25.85-8.83,4.57-1.55,4.57-1.54,3.06-6q-3.81-11.39-7.63-22.75c-.21-.63-.4-1.27-.65-1.89-.93-2.32-1.33-2.52-3.77-1.71-6.53,2.19-13,4.41-19.58,6.61-2.63.89-5.27,1.74-7.91,2.62-6.23,2.08-11-3-10.84-8.52.12-3.58,2.06-6.13,6-7.5,7.77-2.7,15.56-5.32,23.34-8l2.53-.85c3.79-1.3,3.9-1.52,2.7-5.2-.65-2-1.38-4-2-6s-.42-2.44,1.59-3.29c.62-.26,1.26-.45,1.89-.66Q573.5,210.61,605.09,200a9.42,9.42,0,0,0,5.39-4,10.71,10.71,0,0,1,17.17-1.22c1.65,1.94,3,2.05,5.11,1.31,6.81-2.39,13.78-4.37,20.5-7a16.29,16.29,0,0,1,21.26,10.57c.71,2.45,1.57,4.86,2.44,7.26.79,2.18.92,2.27,3.18,1.54,4.86-1.57,9.72-3.17,14.54-4.86,4.1-1.44,8.19-2.06,12.34-.32,1.71.72,3.29.13,4.86-.36a220,220,0,0,0,21.24-7.88c19.94-8.47,40.12-16.32,60.76-23,11.54-3.7,23.26-6.71,35.36-8,18.65-2,37.09-1,55,4.84,14.26,4.63,26.53,12.41,35.63,24.6a49.48,49.48,0,0,1,10,28.47c.31,9-1.93,17.63-5.54,25.85a105.23,105.23,0,0,1-11.23,19.63C911,270.55,909,273.78,907,277a25.75,25.75,0,0,0-3.61,10.3c-1,8.47,2.86,14.56,9.34,19.36,5.34,3.95,11.58,6.07,17.68,8.45,5.28,2.07,10.85,3.2,16.26,4.89v6a19.62,19.62,0,0,1-2.31-.19,121.45,121.45,0,0,1-31.83-11.57,30.37,30.37,0,0,1-7.93-6c-6.69-7-9.44-15.16-7.13-24.75a40.2,40.2,0,0,1,5.58-12.4c2.72-4.19,5.57-8.3,8.31-12.48a77.53,77.53,0,0,0,9.93-21c5-17.27,1.27-32.54-11.08-45.55-8.06-8.49-18.07-13.93-29.18-17.35-13.08-4-26.49-5.11-40.13-4.79a150.93,150.93,0,0,0-39,6.5c-17.5,5.12-34.48,11.71-51.41,18.42-10.63,4.22-21,9-31.87,12.7-4,1.36-4,1.35-2.76,5.22,0,.11.07.22.1.32,1.26,4.2,1.25,4.18,5.44,2.47,16.35-6.67,32.69-13.37,49.06-20s32.78-12.54,50.06-16.05c16.26-3.29,32.57-4.29,48.93-.88,10.75,2.23,20.93,5.91,30,12.3,7.86,5.55,13.16,12.79,15,22.35,1.72,8.8.17,17.22-2.85,25.48-2.83,7.72-7.78,14.19-12.32,20.89a94.57,94.57,0,0,0-8,13.81,38.19,38.19,0,0,0-1.89,27.6c3,10,9.7,16.75,18.6,21.64,9.16,5,19.1,7.73,29.23,9.91,3.15.67,6.37,1,9.42,2.1Zm-355.38-97c2.12-.56,2.65.54,3.06,1.76,1.5,4.42,3,8.83,4.44,13.27.72,2.27.51,2.68-1.71,3.48-3.24,1.17-6.52,2.22-9.78,3.31-7.26,2.44-14.53,4.85-21.78,7.31-2.61.89-2.74,1-2,3.2q3.9,11.87,7.94,23.69c.71,2.07,1,2.13,3.24,1.5.42-.12.84-.27,1.26-.41l55.23-18.62c3.54-1.2,3.54-1.22,2.25-4.91-.33-.95-.63-1.9-.95-2.84l-21.81-64.7c-1.31-3.87-1.45-4-5.13-2.73Q577.75,217,550,226.35c-3.07,1-3.09,1.11-2,4.3,2.27,6.85,4.58,13.68,6.87,20.53.35,1,.72,2.1,1.09,3.14a1.48,1.48,0,0,0,2.06,1.09c.84-.27,1.69-.53,2.53-.81L589.23,245Zm67.63-48.25a11.16,11.16,0,0,0-3.7.76l-19.9,6.67c-3.16,1.07-3.21,1.14-2.17,4.24q9.81,29.2,19.69,58.41c1.06,3.14,1.2,3.21,4.26,2.2q9.81-3.24,19.59-6.57a18.51,18.51,0,0,0,2.75-1.18,7.9,7.9,0,0,0,4.21-8.92,23.38,23.38,0,0,0-.78-2.55q-7.83-23.2-15.67-46.41a12.66,12.66,0,0,0-.84-2.17C664.76,197.78,662.51,196,658.92,196.07Zm-39.18,1.3c-3.27,0-5.2,2.1-4.9,5.16a15.22,15.22,0,0,0,.82,3.22c2.38,7,4.81,14.07,7.18,21.11q8.64,25.72,17.25,51.45a13.48,13.48,0,0,0,1.54,3.67,5,5,0,0,0,5.93,1.67,4.83,4.83,0,0,0,2.77-5.17,21,21,0,0,0-.87-2.87Q637.25,239.33,625,203.05a20.83,20.83,0,0,0-1.38-3.38A4.12,4.12,0,0,0,619.74,197.37Zm90.12,20.44c0-5.76-5.18-10-10.23-8.57-6,1.73-11.82,3.88-17.73,5.83-1.49.5-1.78,1.42-1.28,2.84,1.42,4,2.79,8,4.14,12a1.76,1.76,0,0,0,2.58,1.25c5.88-2,11.8-3.94,17.62-6.12C708.36,223.74,709.63,220.79,709.86,217.81Zm-117.58,39c-.29-.91-.67-2.18-1.12-3.43-1-2.78-1.28-3-4.12-2-8,2.66-16,5.33-23.93,8.09-4.53,1.57-5.18.89-3.08,6.81,1,2.91,1.05,2.94,4,1.95q11.67-3.88,23.32-7.82c1.26-.43,2.5-.91,3.73-1.42A1.81,1.81,0,0,0,592.28,256.85Zm-77.68-1.06c.54-.15,1.4-.37,2.23-.65q6.3-2.08,12.59-4.21c4.3-1.44,8.62-2.85,12.89-4.35,2.1-.74,2.2-1.1,1.54-3.22-.72-2.29-1.07-2.56-3.3-1.83q-13.08,4.33-26.11,8.76a7,7,0,0,0-1.77.89,2.35,2.35,0,0,0-.95,2.92C512.13,255.26,513,255.85,514.6,255.79Zm45.52,36.62c.12-2.69-1.32-3.82-3.94-3q-12.78,4.23-25.53,8.56a7.53,7.53,0,0,0-2.07,1,2.27,2.27,0,0,0-.72,3,2.33,2.33,0,0,0,2.61,1.6,15.45,15.45,0,0,0,2.56-.71l19.22-6.44c2.11-.7,4.21-1.41,6.3-2.15C559.41,294,560.16,293.51,560.12,292.41Z" transform="translate(333.33 -163.17)"/><path class="cls-1" d="M-333.33,370c11.39-4.29,21.61-10.85,32.25-16.61,22.77-12.33,45.62-24.52,70.43-32.42,13.75-4.38,27.8-6.88,42.29-6.39a92.89,92.89,0,0,1,40.81,11.07,74.17,74.17,0,0,1,13.06,8.59c10.93,9.18,16.35,20.87,15.76,35.13-.39,9.43-3.1,18.36-6.75,27-3.11,7.37-6.65,14.55-10.19,21.72a54,54,0,0,0-5.12,15.09c-1.59,9.52,1.46,17.26,8.79,23.41,5.71,4.8,12.51,7.06,19.65,8.58,15.61,3.33,31.12,2.39,46.61-.91,4.25-.91,8.37-2.22,12.53-3.41a4.67,4.67,0,0,0,3.34-2.93c1.9-4.75,5.51-7.63,10.35-9.18,3.91-1.26,7.77-2.67,11.63-4.08,2.46-.89,2.64-1.23,1.77-3.68-1.09-3-2.21-6-2-9.36.32-6.14,3.14-10.59,8.8-13,3.57-1.52,7.29-2.69,11-4,3.87-1.37,7.74-2.77,11.64-4a4.25,4.25,0,0,0,3.09-3.1c2.31-7.88,7.61-12.74,15.33-15.34,12.84-4.33,25.61-8.86,38.43-13.25,2.4-.82,4.16-1.83,5.22-4.52,1.93-4.94,6.44-6.63,11.33-6.71,4.47-.08,8.23,3,9.81,7.65,6.9,20.18,14,40.3,21,60.45,2.41,6.92,4.78,13.86,7.2,20.78a12.3,12.3,0,0,1,.68,6.23,9,9,0,0,1-4.19,6.52c-4.44,2.65-9,4-13.68.52-1.44-1.07-2.7-.54-4.07-.07L53.72,483.58a28.81,28.81,0,0,1-7.43,1.8,20.2,20.2,0,0,1-13.54-3.74,5.65,5.65,0,0,0-5.88-.64c-6.57,2.42-13.18,4.71-19.8,7a16,16,0,0,1-7.84,1c-5.65-.94-9.45-4.18-11.77-9.27-.74-1.61-1.19-3.34-1.86-5-.8-2-1.23-2.24-3.29-1.58-3.92,1.24-7.84,2.51-11.68,4s-7.49,2-11.37.59a5,5,0,0,0-3.88.34,120.46,120.46,0,0,1-38.27,9.72c-15.13,1.29-30.2.87-44.81-4A51.7,51.7,0,0,1-153,466.17c-8.09-10.47-10.44-22.32-8.1-35.24,1.78-9.82,5.36-19,9.59-28,2.84-6,5.91-11.94,8.29-18.18a51,51,0,0,0,2.76-10.28c1.48-9.46-1.58-17.3-8.66-23.6-6.12-5.43-13.5-8.51-21.24-10.73-14.9-4.26-29.87-3.66-44.83-.3-14.07,3.16-27.35,8.52-40.32,14.67-14.46,6.84-28.54,14.45-42.82,21.66a275.69,275.69,0,0,1-31.11,13.66,7.93,7.93,0,0,1-3.86.82V384c1.27-.4,2.56-.74,3.81-1.2a261.16,261.16,0,0,0,26.21-11.55c16.92-8.38,33.42-17.61,50.67-25.33,12.5-5.6,25.28-10.39,38.74-13.15,18-3.68,35.75-3.27,53.05,3.67,7.53,3,14.35,7,19.71,13.27a31.36,31.36,0,0,1,7.3,15.46c1.21,7.15-.34,13.93-2.71,20.57-2.62,7.34-6.29,14.22-9.57,21.27-4.1,8.79-7.57,17.79-8.81,27.5-1.49,11.71,1.56,22,9.74,30.64a47.62,47.62,0,0,0,25,13.9,114,114,0,0,0,34.09,2.33,126.26,126.26,0,0,0,34.68-7.67c3.33-1.26,3.39-1.64,1.67-4.77a2.12,2.12,0,0,0-2.68-1.3c-1.18.32-2.36.66-3.53,1-17.2,4.81-34.61,6.89-52.39,4.09-10.68-1.69-20.88-4.59-29.1-12.13-7.69-7-11.25-15.75-10.16-26.26.67-6.52,2.91-12.53,5.66-18.38,2.83-6,5.82-12,8.63-18a83.47,83.47,0,0,0,7.63-25.08c1.64-13.63-2.57-24.95-13.29-33.71a78.94,78.94,0,0,0-23.24-12.8c-16.43-6-33.26-6.33-50.26-3.12-16.72,3.16-32.41,9.38-47.69,16.67q-26.79,12.76-52.47,27.65c-6.52,3.79-13.27,7.23-20.65,9.15ZM44.93,478a13,13,0,0,0,4.66-.82q19.83-6.86,39.65-13.73c2.7-.94,2.8-1.24,2-3.86-.1-.32-.2-.64-.31-1l-24.54-70.8c-.15-.42-.32-.83-.46-1.25-.39-1.22-1.23-1.46-2.35-1.09L62,386,22.4,399.79a12,12,0,0,0-4.31,2.46c-4.68,4.35-6.33,9.5-4.21,15.67q5,14.49,10,29c2.5,7.24,5,14.48,7.63,21.67A13.83,13.83,0,0,0,44.93,478Zm-65.61-45.62a11.83,11.83,0,0,0,.77,4.1q4,11.47,8,22.94c2,5.76,3.93,11.55,6.1,17.25,1.63,4.27,5.4,6,9.68,4.58,6.31-2.09,12.59-4.3,18.87-6.52,2.6-.93,2.63-1.12,1.65-3.93q-4-11.47-8-22.95Q11.61,434,6.77,420.16c-.83-2.36-1-2.55-3-1.88-6.62,2.24-13.25,4.47-19.79,6.92C-19.09,426.35-20.73,428.8-20.68,432.33Zm129.8,28c-.15-.53-.35-1.4-.64-2.23q-11-31.59-22-63.18c-2-5.87-4-11.75-6.2-17.57-1.17-3.14-3.23-3.9-6.38-2.7-2.89,1.1-3.43,2.42-2.34,5.76.14.42.29.84.44,1.26q9,25.94,18,51.87,5,14.46,10.08,28.91c.92,2.61,2.22,3.26,4.84,2.72A4.8,4.8,0,0,0,109.12,460.31Zm-144.9,12.36a5.54,5.54,0,0,0,1.06-.06c5.57-1.13,10.7-3.57,16.06-5.32,1-.34,1.18-1.24.85-2.19Q-20.27,458-22.75,451a1.67,1.67,0,0,0-2.37-1.12c-5.14,1.75-10.41,3.16-15.31,5.5a8.76,8.76,0,0,0-4.43,10.15A9,9,0,0,0-35.78,472.67Z" transform="translate(333.33 -163.17)"/><path class="cls-1" d="M304.58,523.31c-1-.41-1.18-1.2-1.5-1.89-9-19.89-19.79-38.77-31.27-57.28-15.53-25-32.48-49.1-50.36-72.51-10.92-14.3-22.25-28.28-33.78-42.09-.42-.52-.89-1-1.29-1.53-.77-1.05-.32-1.75.82-1.82a37.32,37.32,0,0,1,6,0c2.78.27,5.55.31,8.32.33,14.78.07,29.55.21,44.33.15a8.25,8.25,0,0,1,7.31,3.55c13.89,18,27.6,36.22,40.13,55.26A172.75,172.75,0,0,1,304.68,425a4.4,4.4,0,0,0,.58.75c1,.17,1.12-.64,1.42-1.17,8.24-15.07,18.57-28.71,28.85-42.38,7.89-10.47,16.13-20.66,24.33-30.89A7.76,7.76,0,0,1,367,348c18.54,1,37.09.35,55.64.71,1.44,0,3.53-.81,4.17,1,.5,1.39-1.3,2.4-2.23,3.46q-14.29,16.27-28,33c-13.92,17-27.36,34.43-40,52.41-18.53,26.25-36.07,53.11-50.16,82.08A5.68,5.68,0,0,1,304.58,523.31Zm-.26-15.1c1.47-.7,1.68-1.75,2.16-2.6,1.67-3,3.26-6.06,4.95-9.06a743.22,743.22,0,0,1,48.73-74.35q24.4-33.13,51.39-64.22c.54-.61,1.48-1.14.84-2.32a7.76,7.76,0,0,0-1.25-.21c-14.32-.08-28.64-.1-43-.64a4.84,4.84,0,0,0-4.22,2.1c-12,14.69-23.7,29.67-34.81,45.08-8.46,11.73-16.52,23.68-21.76,37.29-.41,1.07-.52,2.81-1.92,2.83s-1.49-1.74-1.91-2.81a145.87,145.87,0,0,0-13.71-27q-7-10.75-14.45-21.18-12.75-17.92-26.28-35.26c-1.38-1.77-2.87-2.66-5.06-2.44a1.93,1.93,0,0,1-.34,0c-14.32-.19-28.64.17-43-.45-.34,0-.64.15-.81.87C239.27,402,275.8,452.32,304.32,508.21Z" transform="translate(333.33 -163.17)"/><path class="cls-1" d="M414.33,326.07c-12.95-.35-27.05-.74-41.15-.68-3.69,0-4-.27-3.85-4.05a60.38,60.38,0,0,0-13.89-41.06c-11.05-13.56-25.33-21.29-42.83-23-16.85-1.62-32,2.81-45.1,13.39-15,12.1-23,27.93-23.5,47.33-.14,5.47.87,6.21-6.12,5.89-17.43-.81-34.87-.33-52.3-.63l-1.66-.05a2.44,2.44,0,0,1-2.61-2.77c0-3.11-.13-6.23.08-9.32,1.87-28.16,11.51-53.33,30-74.7,20.55-23.74,46.44-38.23,77.68-42.66a122.24,122.24,0,0,1,74.68,12.49,125.72,125.72,0,0,1,67.43,96.93,113.16,113.16,0,0,1,.82,19c-.16,3.54-.5,3.88-4.21,3.9C423.7,326.08,419.59,326.07,414.33,326.07Zm-6.13-6.81c4.55,0,9.11,0,13.66,0,3.12,0,3.36-.31,3.41-3.48a91.24,91.24,0,0,0-.59-10.31,115.43,115.43,0,0,0-12.57-42.22,118.75,118.75,0,0,0-220.22,24.29,112,112,0,0,0-3.78,26c-.06,2.61.31,3,2.81,3,14.33.17,28.66,0,43,.61,3,.12,3.12-.05,3.44-3.14a70.89,70.89,0,0,1,8.53-27.84,69.05,69.05,0,0,1,62.71-35.75,64.22,64.22,0,0,1,29.47,7.39c22.87,12.28,35.53,31.52,38,57.4.3,3.23.37,3.48,3.52,3.44C389.11,318.52,398.64,319.49,408.2,319.26Z" transform="translate(333.33 -163.17)"/><path class="cls-1" d="M559.32,232.05c-1.17,0-2-.27-2.31-1.26a1.72,1.72,0,0,1,1.07-2.16,14.92,14.92,0,0,1,2.15-.88q13.2-4.5,26.42-9a18.53,18.53,0,0,1,3.21-.77,1.71,1.71,0,0,1,1.87,1.1,1.77,1.77,0,0,1-.85,2.27,8.4,8.4,0,0,1-1.8.83q-14,4.71-28,9.39C560.42,231.81,559.77,231.93,559.32,232.05Z" transform="translate(333.33 -163.17)"/><path class="cls-1" d="M597.74,219.35c-1.56.06-2.51-.18-2.8-1.37a1.81,1.81,0,0,1,1.23-2.1,17.24,17.24,0,0,1,4.7-1.52,1.8,1.8,0,0,1,2.28,1.39,1.76,1.76,0,0,1-1.18,2.12C600.44,218.48,598.86,219,597.74,219.35Z" transform="translate(333.33 -163.17)"/><path class="cls-1" d="M667.05,242.43a2,2,0,0,1-1.3,2.29,1.83,1.83,0,0,1-2.32-.78,9.8,9.8,0,0,1-.95-2.11q-4.22-12.26-8.37-24.52a12.67,12.67,0,0,1-.62-2.57,1.75,1.75,0,0,1,1.1-1.87,1.81,1.81,0,0,1,2.36.63,7.65,7.65,0,0,1,1,2.06q4.32,12.57,8.59,25.16C666.79,241.34,666.93,242,667.05,242.43Z" transform="translate(333.33 -163.17)"/><path class="cls-1" d="M658.62,245.19c0,1.21-.31,2-1.26,2.35a1.8,1.8,0,0,1-2.29-.85,10.25,10.25,0,0,1-1-2.09q-4.16-12.12-8.27-24.24a7.44,7.44,0,0,1-.56-2.92,1.92,1.92,0,0,1,1.22-1.82,1.83,1.83,0,0,1,2.27.89,8.63,8.63,0,0,1,.83,1.8q4.32,12.58,8.6,25.18C658.38,244.12,658.51,244.77,658.62,245.19Z" transform="translate(333.33 -163.17)"/><path class="cls-1" d="M19.32,411.92c0-3.63,2.85-7.32,7-8.84s8.58-3,12.89-4.5q9.6-3.29,19.23-6.54c.31-.11.62-.24.94-.32,1.86-.5,3.24,0,3.58,1.34.44,1.68-.67,2.48-2,3-4.28,1.54-8.58,3-12.89,4.5-6.09,2.09-12.2,4.13-18.29,6.2a13.35,13.35,0,0,0-3.62,1.66,4.63,4.63,0,0,0-2.14,3.92c0,1.57-.43,2.95-2.33,3C20.28,415.39,19.33,414,19.32,411.92Z" transform="translate(333.33 -163.17)"/><path class="cls-1" d="M-1.39,435c0-1.27.33-2.09,1.27-2.43a1.91,1.91,0,0,1,2.48,1.11,14,14,0,0,1,.76,1.84q4.35,12.42,8.67,24.84a15.33,15.33,0,0,1,.74,2.89,1.76,1.76,0,0,1-1.12,1.87A1.81,1.81,0,0,1,9,464.46a8.17,8.17,0,0,1-1-2.06Q3.52,449.68-.89,436.93C-1.14,436.21-1.27,435.44-1.39,435Z" transform="translate(333.33 -163.17)"/><path class="cls-1" d="M-9.93,437.9a2.09,2.09,0,0,1,1.24-2.33,1.88,1.88,0,0,1,2.5,1A25.53,25.53,0,0,1-4.8,440q4.05,11.64,8.05,23.29a14.27,14.27,0,0,1,.7,2.56,1.91,1.91,0,0,1-1.35,2.35,1.86,1.86,0,0,1-2.26-.95,10.93,10.93,0,0,1-1-2.11Q-5,452.4-9.43,439.64C-9.64,439-9.8,438.36-9.93,437.9Z" transform="translate(333.33 -163.17)"/></svg>