<svg xmlns="http://www.w3.org/2000/svg" viewBox="0 0 184.6 184.6"><defs><style>.cls-1{fill:#00adf0;}.cls-2{fill:#fb0;}</style></defs><title>&amp;apos;</title><g id="Capa_1" data-name="Capa 1"><path class="cls-1" d="M91,167.54s13.38-31.71,55.38-79.74l-29.5-.13s-21.28,26-25.68,36.19c-4.31-10.23-25.36-36.42-25.36-36.42l-29.5-.13C77.94,135.71,91,167.54,91,167.54"/><path class="cls-2" d="M35.46,73.6q0,1.47.06,2.91l28.17.15c0-.68-.1-1.37-.09-2.06a28.7,28.7,0,1,1,57.39.29c0,.69-.06,1.37-.11,2l28.17.15c0-1,.08-1.94.08-2.91A56.84,56.84,0,1,0,35.46,73.6"/></g></svg>