<svg xmlns="http://www.w3.org/2000/svg" xmlns:xlink="http://www.w3.org/1999/xlink" viewBox="0 0 200 200"><defs><style>.cls-1,.cls-3{fill:none;}.cls-2{isolation:isolate;}.cls-3{stroke:#00adf0;stroke-linecap:round;stroke-linejoin:round;stroke-width:6.27px;}.cls-4{clip-path:url(#clip-path);}.cls-5{opacity:0.5;mix-blend-mode:overlay;}.cls-6{fill:#00adf0;fill-rule:evenodd;}</style><clipPath id="clip-path"><rect class="cls-1" x="-450.5" y="571.5" width="1927" height="1227"/></clipPath></defs><title>&amp;apos;</title><g class="cls-2"><g id="Capa_1" data-name="Capa 1"><path class="cls-3" d="M51.18,169s-34.24-24.37-34.24-67.31S51.18,32.13,51.18,32.13"/><path class="cls-3" d="M148.82,32.13s34.24,24.37,34.24,67.31S148.82,169,148.82,169"/><path class="cls-3" d="M106.54,21.59V60.46a23.12,23.12,0,0,1-3.44,12.13L93.8,87.68a14.75,14.75,0,0,0-2.18,8.44L95,166.86A10.93,10.93,0,0,1,84,178.3h0a10.93,10.93,0,0,1-10.92-11.44l3.34-70.74a14.75,14.75,0,0,0-2.18-8.44L65,72.59a23.21,23.21,0,0,1-3.44-12.13V21.59"/><path class="cls-3" d="M138,90.68a78.93,78.93,0,0,0-2.14,20.66L137.51,167a10.94,10.94,0,0,1-10.92,11.45h0A10.92,10.92,0,0,1,115.68,167l4.26-139.65a4.33,4.33,0,0,1,8.19-1.84l14,27.43a14.79,14.79,0,0,1,2.14,11.78Z"/><line class="cls-3" x1="75.65" y1="21.7" x2="75.65" y2="67.52"/><line class="cls-3" x1="90.79" y1="21.7" x2="90.79" y2="67.52"/><g class="cls-4"><g class="cls-5"><path class="cls-6" d="M588,440.31C722.35,545.05,860.41,487.85,992.27,462c308.3-60.45,315.51-680,470.79-815.71,89.59-126.61,381-211,271.46,21.3L1682-307.3c102.47,131.57,196.83,489.15,196,770.27-.67,239.09-132.77,404.87-263,502-185.12,135.8-409.4,191.7-633.18,186a1028.75,1028.75,0,0,1-338.31-65.52c-83.79-31.91-128.87-54.09-225-139.2s-165-227-297.49-229.19c-926.81-15.2-442-209.66-458.93-263.56-15.62-49.31-11.51-877,427.66-23.77C174.47,594.25,422.38,311.24,588,440.31Z"/></g></g></g></g></svg>